<?xml version="1.0" encoding="us-ascii" standalone="no"?><svg xmlns="http://www.w3.org/2000/svg" xmlns:xlink="http://www.w3.org/1999/xlink" contentStyleType="text/css" height="962px" preserveAspectRatio="none" style="width:1204px;height:962px;background:#FFFFFF;" version="1.1" viewBox="0 0 1204 962" width="1204px" zoomAndPan="magnify"><defs/><g><rect fill="none" height="20.9531" style="stroke:none;stroke-width:1.0;" width="1171" x="15" y="12.7451"/><ellipse cx="173" cy="48.6982" fill="#222222" rx="10" ry="10" style="stroke:#222222;stroke-width:1.0;"/><rect fill="#F1F1F1" height="33.9688" rx="12.5" ry="12.5" style="stroke:#181818;stroke-width:0.5;" width="135" x="105.5" y="78.6982"/><text fill="#000000" font-family="sans-serif" font-size="12" lengthAdjust="spacing" textLength="115" x="115.5" y="99.8369">Register in system</text><polygon fill="#F1F1F1" points="103.5,132.667,242.5,132.667,254.5,144.667,242.5,156.667,103.5,156.667,91.5,144.667,103.5,132.667" style="stroke:#181818;stroke-width:0.5;"/><text fill="#000000" font-family="sans-serif" font-size="11" lengthAdjust="spacing" textLength="139" x="103.5" y="148.4751">Registration successful?</text><text fill="#000000" font-family="sans-serif" font-size="11" lengthAdjust="spacing" textLength="21" x="70.5" y="142.0728">Yes</text><text fill="#000000" font-family="sans-serif" font-size="11" lengthAdjust="spacing" textLength="15" x="254.5" y="142.0728">No</text><rect fill="#F1F1F1" height="33.9688" rx="12.5" ry="12.5" style="stroke:#181818;stroke-width:0.5;" width="113" x="25" y="166.667"/><text fill="#000000" font-family="sans-serif" font-size="12" lengthAdjust="spacing" textLength="93" x="35" y="187.8057">Create queues</text><rect fill="#F1F1F1" height="33.9688" rx="12.5" ry="12.5" style="stroke:#181818;stroke-width:0.5;" width="121" x="21" y="220.6357"/><text fill="#000000" font-family="sans-serif" font-size="12" lengthAdjust="spacing" textLength="101" x="31" y="241.7744">Manage queues</text><rect fill="#F1F1F1" height="33.9688" rx="12.5" ry="12.5" style="stroke:#181818;stroke-width:0.5;" width="88" x="220.5" y="166.667"/><text fill="#000000" font-family="sans-serif" font-size="12" lengthAdjust="spacing" textLength="68" x="230.5" y="187.8057">Show error</text><polygon fill="#F1F1F1" points="173,260.6045,185,272.6045,173,284.6045,161,272.6045,173,260.6045" style="stroke:#181818;stroke-width:0.5;"/><ellipse cx="173" cy="315.6045" fill="none" rx="11" ry="11" style="stroke:#222222;stroke-width:1.0;"/><ellipse cx="173" cy="315.6045" fill="#222222" rx="6" ry="6" style="stroke:#222222;stroke-width:1.0;"/><line style="stroke:#000000;stroke-width:1.5;" x1="15" x2="15" y1="12.7451" y2="950.3857"/><ellipse cx="519.5" cy="346.6045" fill="#222222" rx="10" ry="10" style="stroke:#222222;stroke-width:1.0;"/><rect fill="#F1F1F1" height="33.9688" rx="12.5" ry="12.5" style="stroke:#181818;stroke-width:0.5;" width="137" x="451" y="376.6045"/><text fill="#000000" font-family="sans-serif" font-size="12" lengthAdjust="spacing" textLength="117" x="461" y="397.7432">Register for queue</text><polygon fill="#F1F1F1" points="450,430.5732,589,430.5732,601,442.5732,589,454.5732,450,454.5732,438,442.5732,450,430.5732" style="stroke:#181818;stroke-width:0.5;"/><text fill="#000000" font-family="sans-serif" font-size="11" lengthAdjust="spacing" textLength="139" x="450" y="446.3813">Registration successful?</text><text fill="#000000" font-family="sans-serif" font-size="11" lengthAdjust="spacing" textLength="21" x="417" y="439.979">Yes</text><text fill="#000000" font-family="sans-serif" font-size="11" lengthAdjust="spacing" textLength="15" x="601" y="439.979">No</text><rect fill="#F1F1F1" height="47.9375" rx="12.5" ry="12.5" style="stroke:#181818;stroke-width:0.5;" width="219" x="318.5" y="464.5732"/><text fill="#000000" font-family="sans-serif" font-size="12" lengthAdjust="spacing" textLength="165" x="328.5" y="485.7119">Receive queue number via</text><text fill="#000000" font-family="sans-serif" font-size="12" lengthAdjust="spacing" textLength="199" x="328.5" y="499.6807">web app, email, and mobile app</text><rect fill="#F1F1F1" height="33.9688" rx="12.5" ry="12.5" style="stroke:#181818;stroke-width:0.5;" width="142" x="357" y="532.5107"/><text fill="#000000" font-family="sans-serif" font-size="12" lengthAdjust="spacing" textLength="122" x="367" y="553.6494">Waiting for the turn</text><rect fill="#F1F1F1" height="33.9688" rx="12.5" ry="12.5" style="stroke:#181818;stroke-width:0.5;" width="88" x="567" y="464.5732"/><text fill="#000000" font-family="sans-serif" font-size="12" lengthAdjust="spacing" textLength="68" x="577" y="485.7119">Show error</text><polygon fill="#F1F1F1" points="519.5,572.4795,531.5,584.4795,519.5,596.4795,507.5,584.4795,519.5,572.4795" style="stroke:#181818;stroke-width:0.5;"/><ellipse cx="519.5" cy="627.4795" fill="none" rx="11" ry="11" style="stroke:#222222;stroke-width:1.0;"/><ellipse cx="519.5" cy="627.4795" fill="#222222" rx="6" ry="6" style="stroke:#222222;stroke-width:1.0;"/><line style="stroke:#000000;stroke-width:1.5;" x1="312.5" x2="312.5" y1="12.7451" y2="950.3857"/><ellipse cx="800.5" cy="658.4795" fill="#222222" rx="10" ry="10" style="stroke:#222222;stroke-width:1.0;"/><rect fill="#F1F1F1" height="33.9688" rx="12.5" ry="12.5" style="stroke:#181818;stroke-width:0.5;" width="135" x="733" y="688.4795"/><text fill="#000000" font-family="sans-serif" font-size="12" lengthAdjust="spacing" textLength="115" x="743" y="709.6182">Register in system</text><polygon fill="#F1F1F1" points="731,742.4482,870,742.4482,882,754.4482,870,766.4482,731,766.4482,719,754.4482,731,742.4482" style="stroke:#181818;stroke-width:0.5;"/><text fill="#000000" font-family="sans-serif" font-size="11" lengthAdjust="spacing" textLength="139" x="731" y="758.2563">Registration successful?</text><text fill="#000000" font-family="sans-serif" font-size="11" lengthAdjust="spacing" textLength="15" x="704" y="751.854">No</text><text fill="#000000" font-family="sans-serif" font-size="11" lengthAdjust="spacing" textLength="21" x="882" y="751.854">Yes</text><rect fill="#F1F1F1" height="33.9688" rx="12.5" ry="12.5" style="stroke:#181818;stroke-width:0.5;" width="88" x="665" y="786.4482"/><text fill="#000000" font-family="sans-serif" font-size="12" lengthAdjust="spacing" textLength="68" x="675" y="807.5869">Show error</text><rect fill="#F1F1F1" height="33.9688" rx="12.5" ry="12.5" style="stroke:#181818;stroke-width:0.5;" width="188" x="798" y="786.4482"/><text fill="#000000" font-family="sans-serif" font-size="12" lengthAdjust="spacing" textLength="168" x="808" y="807.5869">Control queue progression</text><polygon fill="#F1F1F1" points="800.5,884.3857,812.5,896.3857,800.5,908.3857,788.5,896.3857,800.5,884.3857" style="stroke:#181818;stroke-width:0.5;"/><ellipse cx="800.5" cy="939.3857" fill="none" rx="11" ry="11" style="stroke:#222222;stroke-width:1.0;"/><ellipse cx="800.5" cy="939.3857" fill="#222222" rx="6" ry="6" style="stroke:#222222;stroke-width:1.0;"/><line style="stroke:#000000;stroke-width:1.5;" x1="659" x2="659" y1="12.7451" y2="950.3857"/><rect fill="#F1F1F1" height="33.9688" rx="12.5" ry="12.5" style="stroke:#181818;stroke-width:0.5;" width="184" x="996" y="840.417"/><text fill="#000000" font-family="sans-serif" font-size="12" lengthAdjust="spacing" textLength="164" x="1006" y="861.5557">Update queues on screen</text><line style="stroke:#000000;stroke-width:1.5;" x1="990" x2="990" y1="12.7451" y2="950.3857"/><line style="stroke:#000000;stroke-width:1.5;" x1="1184" x2="1184" y1="12.7451" y2="950.3857"/><line style="stroke:#181818;stroke-width:1.0;" x1="173" x2="173" y1="58.6982" y2="78.6982"/><polygon fill="#181818" points="169,68.6982,173,78.6982,177,68.6982,173,72.6982" style="stroke:#181818;stroke-width:1.0;"/><line style="stroke:#181818;stroke-width:1.0;" x1="81.5" x2="81.5" y1="200.6357" y2="220.6357"/><polygon fill="#181818" points="77.5,210.6357,81.5,220.6357,85.5,210.6357,81.5,214.6357" style="stroke:#181818;stroke-width:1.0;"/><line style="stroke:#181818;stroke-width:1.0;" x1="91.5" x2="81.5" y1="144.667" y2="144.667"/><line style="stroke:#181818;stroke-width:1.0;" x1="81.5" x2="81.5" y1="144.667" y2="166.667"/><polygon fill="#181818" points="77.5,156.667,81.5,166.667,85.5,156.667,81.5,160.667" style="stroke:#181818;stroke-width:1.0;"/><line style="stroke:#181818;stroke-width:1.0;" x1="254.5" x2="264.5" y1="144.667" y2="144.667"/><line style="stroke:#181818;stroke-width:1.0;" x1="264.5" x2="264.5" y1="144.667" y2="166.667"/><polygon fill="#181818" points="260.5,156.667,264.5,166.667,268.5,156.667,264.5,160.667" style="stroke:#181818;stroke-width:1.0;"/><line style="stroke:#181818;stroke-width:1.0;" x1="81.5" x2="81.5" y1="254.6045" y2="272.6045"/><line style="stroke:#181818;stroke-width:1.0;" x1="81.5" x2="161" y1="272.6045" y2="272.6045"/><polygon fill="#181818" points="151,268.6045,161,272.6045,151,276.6045,155,272.6045" style="stroke:#181818;stroke-width:1.0;"/><line style="stroke:#181818;stroke-width:1.0;" x1="264.5" x2="264.5" y1="200.6357" y2="272.6045"/><line style="stroke:#181818;stroke-width:1.0;" x1="264.5" x2="185" y1="272.6045" y2="272.6045"/><polygon fill="#181818" points="195,268.6045,185,272.6045,195,276.6045,191,272.6045" style="stroke:#181818;stroke-width:1.0;"/><line style="stroke:#181818;stroke-width:1.0;" x1="173" x2="173" y1="112.667" y2="132.667"/><polygon fill="#181818" points="169,122.667,173,132.667,177,122.667,173,126.667" style="stroke:#181818;stroke-width:1.0;"/><line style="stroke:#181818;stroke-width:1.0;" x1="173" x2="173" y1="284.6045" y2="304.6045"/><polygon fill="#181818" points="169,294.6045,173,304.6045,177,294.6045,173,298.6045" style="stroke:#181818;stroke-width:1.0;"/><line style="stroke:#181818;stroke-width:1.0;" x1="519.5" x2="519.5" y1="356.6045" y2="376.6045"/><polygon fill="#181818" points="515.5,366.6045,519.5,376.6045,523.5,366.6045,519.5,370.6045" style="stroke:#181818;stroke-width:1.0;"/><line style="stroke:#181818;stroke-width:1.0;" x1="428" x2="428" y1="512.5107" y2="532.5107"/><polygon fill="#181818" points="424,522.5107,428,532.5107,432,522.5107,428,526.5107" style="stroke:#181818;stroke-width:1.0;"/><line style="stroke:#181818;stroke-width:1.0;" x1="438" x2="428" y1="442.5732" y2="442.5732"/><line style="stroke:#181818;stroke-width:1.0;" x1="428" x2="428" y1="442.5732" y2="464.5732"/><polygon fill="#181818" points="424,454.5732,428,464.5732,432,454.5732,428,458.5732" style="stroke:#181818;stroke-width:1.0;"/><line style="stroke:#181818;stroke-width:1.0;" x1="601" x2="611" y1="442.5732" y2="442.5732"/><line style="stroke:#181818;stroke-width:1.0;" x1="611" x2="611" y1="442.5732" y2="464.5732"/><polygon fill="#181818" points="607,454.5732,611,464.5732,615,454.5732,611,458.5732" style="stroke:#181818;stroke-width:1.0;"/><line style="stroke:#181818;stroke-width:1.0;" x1="428" x2="428" y1="566.4795" y2="584.4795"/><line style="stroke:#181818;stroke-width:1.0;" x1="428" x2="507.5" y1="584.4795" y2="584.4795"/><polygon fill="#181818" points="497.5,580.4795,507.5,584.4795,497.5,588.4795,501.5,584.4795" style="stroke:#181818;stroke-width:1.0;"/><line style="stroke:#181818;stroke-width:1.0;" x1="611" x2="611" y1="498.542" y2="584.4795"/><line style="stroke:#181818;stroke-width:1.0;" x1="611" x2="531.5" y1="584.4795" y2="584.4795"/><polygon fill="#181818" points="541.5,580.4795,531.5,584.4795,541.5,588.4795,537.5,584.4795" style="stroke:#181818;stroke-width:1.0;"/><line style="stroke:#181818;stroke-width:1.0;" x1="519.5" x2="519.5" y1="410.5732" y2="430.5732"/><polygon fill="#181818" points="515.5,420.5732,519.5,430.5732,523.5,420.5732,519.5,424.5732" style="stroke:#181818;stroke-width:1.0;"/><line style="stroke:#181818;stroke-width:1.0;" x1="519.5" x2="519.5" y1="596.4795" y2="616.4795"/><polygon fill="#181818" points="515.5,606.4795,519.5,616.4795,523.5,606.4795,519.5,610.4795" style="stroke:#181818;stroke-width:1.0;"/><line style="stroke:#181818;stroke-width:1.0;" x1="800.5" x2="800.5" y1="668.4795" y2="688.4795"/><polygon fill="#181818" points="796.5,678.4795,800.5,688.4795,804.5,678.4795,800.5,682.4795" style="stroke:#181818;stroke-width:1.0;"/><line style="stroke:#181818;stroke-width:1.0;" x1="719" x2="709" y1="754.4482" y2="754.4482"/><line style="stroke:#181818;stroke-width:1.0;" x1="709" x2="709" y1="754.4482" y2="786.4482"/><polygon fill="#181818" points="705,776.4482,709,786.4482,713,776.4482,709,780.4482" style="stroke:#181818;stroke-width:1.0;"/><line style="stroke:#181818;stroke-width:1.0;" x1="882" x2="892" y1="754.4482" y2="754.4482"/><line style="stroke:#181818;stroke-width:1.0;" x1="892" x2="892" y1="754.4482" y2="786.4482"/><polygon fill="#181818" points="888,776.4482,892,786.4482,896,776.4482,892,780.4482" style="stroke:#181818;stroke-width:1.0;"/><line style="stroke:#181818;stroke-width:1.0;" x1="709" x2="709" y1="820.417" y2="896.3857"/><line style="stroke:#181818;stroke-width:1.0;" x1="709" x2="788.5" y1="896.3857" y2="896.3857"/><polygon fill="#181818" points="778.5,892.3857,788.5,896.3857,778.5,900.3857,782.5,896.3857" style="stroke:#181818;stroke-width:1.0;"/><line style="stroke:#181818;stroke-width:1.0;" x1="800.5" x2="800.5" y1="722.4482" y2="742.4482"/><polygon fill="#181818" points="796.5,732.4482,800.5,742.4482,804.5,732.4482,800.5,736.4482" style="stroke:#181818;stroke-width:1.0;"/><line style="stroke:#181818;stroke-width:1.0;" x1="800.5" x2="800.5" y1="908.3857" y2="928.3857"/><polygon fill="#181818" points="796.5,918.3857,800.5,928.3857,804.5,918.3857,800.5,922.3857" style="stroke:#181818;stroke-width:1.0;"/><line style="stroke:#181818;stroke-width:1.0;" x1="892" x2="892" y1="820.417" y2="825.417"/><line style="stroke:#181818;stroke-width:1.0;" x1="892" x2="1088" y1="825.417" y2="825.417"/><line style="stroke:#181818;stroke-width:1.0;" x1="1088" x2="1088" y1="825.417" y2="840.417"/><polygon fill="#181818" points="1084,830.417,1088,840.417,1092,830.417,1088,834.417" style="stroke:#181818;stroke-width:1.0;"/><line style="stroke:#181818;stroke-width:1.0;" x1="1088" x2="1088" y1="874.3857" y2="896.3857"/><line style="stroke:#181818;stroke-width:1.0;" x1="1088" x2="812.5" y1="896.3857" y2="896.3857"/><polygon fill="#181818" points="822.5,892.3857,812.5,896.3857,822.5,900.3857,818.5,896.3857" style="stroke:#181818;stroke-width:1.0;"/><text fill="#000000" font-family="sans-serif" font-size="18" lengthAdjust="spacing" textLength="86" x="120.75" y="29.4531">Customer</text><text fill="#000000" font-family="sans-serif" font-size="18" lengthAdjust="spacing" textLength="94" x="438.75" y="29.4531">Participant</text><text fill="#000000" font-family="sans-serif" font-size="18" lengthAdjust="spacing" textLength="52" x="798.5" y="29.4531">Teller</text><text fill="#000000" font-family="sans-serif" font-size="18" lengthAdjust="spacing" textLength="64" x="1055" y="29.4531">Display</text><!--SRC=[hP71QiCm44Jl-eezEf0lI0uzfDUMagQKGYzhUUqio2jr9IK4_F6LOwS9vD92THApQEQDTjZac7nFEfYOK9DPRQdZc4Y11UAftFgruHQgILTCxCiWMqinjjazB23jIQ3weBWmKCvgeuI9u2jJfhYUj2SKxAuQkKXGFVlvnUlU7u5KlPQHDDmM61-C6LuA4biEAEaUiFKw6VuLS4kM-33JWEI-Bcu7nayvKWqOmXAeHtPBG6cWzpKx6kMvopjoOkdE-SKQKbRvVQKTEVSFttq9-l6xJpq3tQp5IrBlvjP1VQV5izXFjOP7Zi7XQNPw2yrrYJ0oM2MIIvcR6cEhRm00]--></g></svg>