<?xml version="1.0" encoding="us-ascii" standalone="no"?><svg xmlns="http://www.w3.org/2000/svg" xmlns:xlink="http://www.w3.org/1999/xlink" contentStyleType="text/css" height="826px" preserveAspectRatio="none" style="width:2178px;height:826px;background:#FFFFFF;" version="1.1" viewBox="0 0 2178 826" width="2178px" zoomAndPan="magnify"><defs/><g><!--class QueueManagementSystem--><g id="elem_QueueManagementSystem"><rect codeLine="2" fill="#F1F1F1" height="162.0781" id="QueueManagementSystem" rx="2.5" ry="2.5" style="stroke:#181818;stroke-width:0.5;" width="399" x="885" y="7"/><ellipse cx="985.75" cy="23" fill="#ADD1B2" rx="11" ry="11" style="stroke:#181818;stroke-width:1.0;"/><path d="M988.7188,28.6406 Q988.1406,28.9375 987.5,29.0781 Q986.8594,29.2344 986.1563,29.2344 Q983.6563,29.2344 982.3281,27.5938 Q981.0156,25.9375 981.0156,22.8125 Q981.0156,19.6875 982.3281,18.0313 Q983.6563,16.375 986.1563,16.375 Q986.8594,16.375 987.5,16.5313 Q988.1563,16.6875 988.7188,16.9844 L988.7188,19.7031 Q988.0938,19.125 987.5,18.8594 Q986.9063,18.5781 986.2813,18.5781 Q984.9375,18.5781 984.25,19.6563 Q983.5625,20.7188 983.5625,22.8125 Q983.5625,24.9063 984.25,25.9844 Q984.9375,27.0469 986.2813,27.0469 Q986.9063,27.0469 987.5,26.7813 Q988.0938,26.5 988.7188,25.9219 L988.7188,28.6406 Z " fill="#000000"/><text fill="#000000" font-family="sans-serif" font-size="14" lengthAdjust="spacing" textLength="189" x="1006.25" y="27.8467">QueueManagementSystem</text><line style="stroke:#181818;stroke-width:0.5;" x1="886" x2="1283" y1="39" y2="39"/><line style="stroke:#181818;stroke-width:0.5;" x1="886" x2="1283" y1="47" y2="47"/><ellipse cx="896" cy="60.6484" fill="#84BE84" rx="3" ry="3" style="stroke:#038048;stroke-width:1.0;"/><text fill="#000000" font-family="sans-serif" font-size="14" lengthAdjust="spacing" textLength="369" x="905" y="63.9951">registerCustomer(email: String, fullName: String): void</text><ellipse cx="896" cy="76.9453" fill="#84BE84" rx="3" ry="3" style="stroke:#038048;stroke-width:1.0;"/><text fill="#000000" font-family="sans-serif" font-size="14" lengthAdjust="spacing" textLength="373" x="905" y="80.292">registerParticipant(email: String, fullName: String): void</text><ellipse cx="896" cy="93.2422" fill="#84BE84" rx="3" ry="3" style="stroke:#038048;stroke-width:1.0;"/><text fill="#000000" font-family="sans-serif" font-size="14" lengthAdjust="spacing" textLength="339" x="905" y="96.5889">registerTeller(email: String, fullName: String): void</text><ellipse cx="896" cy="109.5391" fill="#84BE84" rx="3" ry="3" style="stroke:#038048;stroke-width:1.0;"/><text fill="#000000" font-family="sans-serif" font-size="14" lengthAdjust="spacing" textLength="341" x="905" y="112.8857">createQueue(prefix: String, maxNumber: int): void</text><ellipse cx="896" cy="125.8359" fill="#84BE84" rx="3" ry="3" style="stroke:#038048;stroke-width:1.0;"/><text fill="#000000" font-family="sans-serif" font-size="14" lengthAdjust="spacing" textLength="233" x="905" y="129.1826">manageQueue(queueId: int): void</text><ellipse cx="896" cy="142.1328" fill="#84BE84" rx="3" ry="3" style="stroke:#038048;stroke-width:1.0;"/><text fill="#000000" font-family="sans-serif" font-size="14" lengthAdjust="spacing" textLength="287" x="905" y="145.4795">controlQueueProgress(queueId: int): void</text><ellipse cx="896" cy="158.4297" fill="#84BE84" rx="3" ry="3" style="stroke:#038048;stroke-width:1.0;"/><text fill="#000000" font-family="sans-serif" font-size="14" lengthAdjust="spacing" textLength="294" x="905" y="161.7764">sendQueueNumber(participantId: int): void</text></g><!--class Customer--><g id="elem_Customer"><rect codeLine="12" fill="#F1F1F1" height="113.1875" id="Customer" rx="2.5" ry="2.5" style="stroke:#181818;stroke-width:0.5;" width="367" x="7" y="341"/><ellipse cx="152.25" cy="357" fill="#ADD1B2" rx="11" ry="11" style="stroke:#181818;stroke-width:1.0;"/><path d="M155.2188,362.6406 Q154.6406,362.9375 154,363.0781 Q153.3594,363.2344 152.6563,363.2344 Q150.1563,363.2344 148.8281,361.5938 Q147.5156,359.9375 147.5156,356.8125 Q147.5156,353.6875 148.8281,352.0313 Q150.1563,350.375 152.6563,350.375 Q153.3594,350.375 154,350.5313 Q154.6563,350.6875 155.2188,350.9844 L155.2188,353.7031 Q154.5938,353.125 154,352.8594 Q153.4063,352.5781 152.7813,352.5781 Q151.4375,352.5781 150.75,353.6563 Q150.0625,354.7188 150.0625,356.8125 Q150.0625,358.9063 150.75,359.9844 Q151.4375,361.0469 152.7813,361.0469 Q153.4063,361.0469 154,360.7813 Q154.5938,360.5 155.2188,359.9219 L155.2188,362.6406 Z " fill="#000000"/><text fill="#000000" font-family="sans-serif" font-size="14" lengthAdjust="spacing" textLength="68" x="172.75" y="361.8467">Customer</text><line style="stroke:#181818;stroke-width:0.5;" x1="8" x2="373" y1="373" y2="373"/><ellipse cx="18" cy="386.6484" fill="none" rx="3" ry="3" style="stroke:#038048;stroke-width:1.0;"/><text fill="#000000" font-family="sans-serif" font-size="14" lengthAdjust="spacing" textLength="85" x="27" y="389.9951">email: String</text><ellipse cx="18" cy="402.9453" fill="none" rx="3" ry="3" style="stroke:#038048;stroke-width:1.0;"/><text fill="#000000" font-family="sans-serif" font-size="14" lengthAdjust="spacing" textLength="108" x="27" y="406.292">fullName: String</text><line style="stroke:#181818;stroke-width:0.5;" x1="8" x2="373" y1="413.5938" y2="413.5938"/><ellipse cx="18" cy="427.2422" fill="#84BE84" rx="3" ry="3" style="stroke:#038048;stroke-width:1.0;"/><text fill="#000000" font-family="sans-serif" font-size="14" lengthAdjust="spacing" textLength="341" x="27" y="430.5889">createQueue(prefix: String, maxNumber: int): void</text><ellipse cx="18" cy="443.5391" fill="#84BE84" rx="3" ry="3" style="stroke:#038048;stroke-width:1.0;"/><text fill="#000000" font-family="sans-serif" font-size="14" lengthAdjust="spacing" textLength="158" x="27" y="446.8857">manageQueues(): void</text></g><!--class Participant--><g id="elem_Participant"><rect codeLine="19" fill="#F1F1F1" height="113.1875" id="Participant" rx="2.5" ry="2.5" style="stroke:#181818;stroke-width:0.5;" width="278" x="744.5" y="484"/><ellipse cx="843.25" cy="500" fill="#ADD1B2" rx="11" ry="11" style="stroke:#181818;stroke-width:1.0;"/><path d="M846.2188,505.6406 Q845.6406,505.9375 845,506.0781 Q844.3594,506.2344 843.6563,506.2344 Q841.1563,506.2344 839.8281,504.5938 Q838.5156,502.9375 838.5156,499.8125 Q838.5156,496.6875 839.8281,495.0313 Q841.1563,493.375 843.6563,493.375 Q844.3594,493.375 845,493.5313 Q845.6563,493.6875 846.2188,493.9844 L846.2188,496.7031 Q845.5938,496.125 845,495.8594 Q844.4063,495.5781 843.7813,495.5781 Q842.4375,495.5781 841.75,496.6563 Q841.0625,497.7188 841.0625,499.8125 Q841.0625,501.9063 841.75,502.9844 Q842.4375,504.0469 843.7813,504.0469 Q844.4063,504.0469 845,503.7813 Q845.5938,503.5 846.2188,502.9219 L846.2188,505.6406 Z " fill="#000000"/><text fill="#000000" font-family="sans-serif" font-size="14" lengthAdjust="spacing" textLength="72" x="863.75" y="504.8467">Participant</text><line style="stroke:#181818;stroke-width:0.5;" x1="745.5" x2="1021.5" y1="516" y2="516"/><ellipse cx="755.5" cy="529.6484" fill="none" rx="3" ry="3" style="stroke:#038048;stroke-width:1.0;"/><text fill="#000000" font-family="sans-serif" font-size="14" lengthAdjust="spacing" textLength="85" x="764.5" y="532.9951">email: String</text><ellipse cx="755.5" cy="545.9453" fill="none" rx="3" ry="3" style="stroke:#038048;stroke-width:1.0;"/><text fill="#000000" font-family="sans-serif" font-size="14" lengthAdjust="spacing" textLength="108" x="764.5" y="549.292">fullName: String</text><line style="stroke:#181818;stroke-width:0.5;" x1="745.5" x2="1021.5" y1="556.5938" y2="556.5938"/><ellipse cx="755.5" cy="570.2422" fill="#84BE84" rx="3" ry="3" style="stroke:#038048;stroke-width:1.0;"/><text fill="#000000" font-family="sans-serif" font-size="14" lengthAdjust="spacing" textLength="252" x="764.5" y="573.5889">registerForQueue(queueId: int): void</text><ellipse cx="755.5" cy="586.5391" fill="#84BE84" rx="3" ry="3" style="stroke:#038048;stroke-width:1.0;"/><text fill="#000000" font-family="sans-serif" font-size="14" lengthAdjust="spacing" textLength="188" x="764.5" y="589.8857">receiveQueueNumber(): int</text></g><!--class Teller--><g id="elem_Teller"><rect codeLine="26" fill="#F1F1F1" height="96.8906" id="Teller" rx="2.5" ry="2.5" style="stroke:#181818;stroke-width:0.5;" width="251" x="379" y="349"/><ellipse cx="481.25" cy="365" fill="#ADD1B2" rx="11" ry="11" style="stroke:#181818;stroke-width:1.0;"/><path d="M484.2188,370.6406 Q483.6406,370.9375 483,371.0781 Q482.3594,371.2344 481.6563,371.2344 Q479.1563,371.2344 477.8281,369.5938 Q476.5156,367.9375 476.5156,364.8125 Q476.5156,361.6875 477.8281,360.0313 Q479.1563,358.375 481.6563,358.375 Q482.3594,358.375 483,358.5313 Q483.6563,358.6875 484.2188,358.9844 L484.2188,361.7031 Q483.5938,361.125 483,360.8594 Q482.4063,360.5781 481.7813,360.5781 Q480.4375,360.5781 479.75,361.6563 Q479.0625,362.7188 479.0625,364.8125 Q479.0625,366.9063 479.75,367.9844 Q480.4375,369.0469 481.7813,369.0469 Q482.4063,369.0469 483,368.7813 Q483.5938,368.5 484.2188,367.9219 L484.2188,370.6406 Z " fill="#000000"/><text fill="#000000" font-family="sans-serif" font-size="14" lengthAdjust="spacing" textLength="38" x="501.75" y="369.8467">Teller</text><line style="stroke:#181818;stroke-width:0.5;" x1="380" x2="629" y1="381" y2="381"/><ellipse cx="390" cy="394.6484" fill="none" rx="3" ry="3" style="stroke:#038048;stroke-width:1.0;"/><text fill="#000000" font-family="sans-serif" font-size="14" lengthAdjust="spacing" textLength="85" x="399" y="397.9951">email: String</text><ellipse cx="390" cy="410.9453" fill="none" rx="3" ry="3" style="stroke:#038048;stroke-width:1.0;"/><text fill="#000000" font-family="sans-serif" font-size="14" lengthAdjust="spacing" textLength="108" x="399" y="414.292">fullName: String</text><line style="stroke:#181818;stroke-width:0.5;" x1="380" x2="629" y1="421.5938" y2="421.5938"/><ellipse cx="390" cy="435.2422" fill="#84BE84" rx="3" ry="3" style="stroke:#038048;stroke-width:1.0;"/><text fill="#000000" font-family="sans-serif" font-size="14" lengthAdjust="spacing" textLength="225" x="399" y="438.5889">controlQueue(queueId: int): void</text></g><!--class Queue--><g id="elem_Queue"><rect codeLine="32" fill="#F1F1F1" height="145.7813" id="Queue" rx="2.5" ry="2.5" style="stroke:#181818;stroke-width:0.5;" width="190" x="558.5" y="674"/><ellipse cx="625.75" cy="690" fill="#ADD1B2" rx="11" ry="11" style="stroke:#181818;stroke-width:1.0;"/><path d="M628.7188,695.6406 Q628.1406,695.9375 627.5,696.0781 Q626.8594,696.2344 626.1563,696.2344 Q623.6563,696.2344 622.3281,694.5938 Q621.0156,692.9375 621.0156,689.8125 Q621.0156,686.6875 622.3281,685.0313 Q623.6563,683.375 626.1563,683.375 Q626.8594,683.375 627.5,683.5313 Q628.1563,683.6875 628.7188,683.9844 L628.7188,686.7031 Q628.0938,686.125 627.5,685.8594 Q626.9063,685.5781 626.2813,685.5781 Q624.9375,685.5781 624.25,686.6563 Q623.5625,687.7188 623.5625,689.8125 Q623.5625,691.9063 624.25,692.9844 Q624.9375,694.0469 626.2813,694.0469 Q626.9063,694.0469 627.5,693.7813 Q628.0938,693.5 628.7188,692.9219 L628.7188,695.6406 Z " fill="#000000"/><text fill="#000000" font-family="sans-serif" font-size="14" lengthAdjust="spacing" textLength="47" x="646.25" y="694.8467">Queue</text><line style="stroke:#181818;stroke-width:0.5;" x1="559.5" x2="747.5" y1="706" y2="706"/><ellipse cx="569.5" cy="719.6484" fill="none" rx="3" ry="3" style="stroke:#038048;stroke-width:1.0;"/><text fill="#000000" font-family="sans-serif" font-size="14" lengthAdjust="spacing" textLength="83" x="578.5" y="722.9951">queueId: int</text><ellipse cx="569.5" cy="735.9453" fill="none" rx="3" ry="3" style="stroke:#038048;stroke-width:1.0;"/><text fill="#000000" font-family="sans-serif" font-size="14" lengthAdjust="spacing" textLength="86" x="578.5" y="739.292">prefix: String</text><ellipse cx="569.5" cy="752.2422" fill="none" rx="3" ry="3" style="stroke:#038048;stroke-width:1.0;"/><text fill="#000000" font-family="sans-serif" font-size="14" lengthAdjust="spacing" textLength="109" x="578.5" y="755.5889">maxNumber: int</text><ellipse cx="569.5" cy="768.5391" fill="none" rx="3" ry="3" style="stroke:#038048;stroke-width:1.0;"/><text fill="#000000" font-family="sans-serif" font-size="14" lengthAdjust="spacing" textLength="131" x="578.5" y="771.8857">currentNumber: int</text><line style="stroke:#181818;stroke-width:0.5;" x1="559.5" x2="747.5" y1="779.1875" y2="779.1875"/><ellipse cx="569.5" cy="792.8359" fill="#84BE84" rx="3" ry="3" style="stroke:#038048;stroke-width:1.0;"/><text fill="#000000" font-family="sans-serif" font-size="14" lengthAdjust="spacing" textLength="130" x="578.5" y="796.1826">resetQueue(): void</text><ellipse cx="569.5" cy="809.1328" fill="#84BE84" rx="3" ry="3" style="stroke:#038048;stroke-width:1.0;"/><text fill="#000000" font-family="sans-serif" font-size="14" lengthAdjust="spacing" textLength="164" x="578.5" y="812.4795">incrementQueue(): void</text></g><!--class DisplaySystem--><g id="elem_DisplaySystem"><rect codeLine="41" fill="#F1F1F1" height="64.2969" id="DisplaySystem" rx="2.5" ry="2.5" style="stroke:#181818;stroke-width:0.5;" width="175" x="1530" y="508.5"/><ellipse cx="1564.35" cy="524.5" fill="#ADD1B2" rx="11" ry="11" style="stroke:#181818;stroke-width:1.0;"/><path d="M1567.3188,530.1406 Q1566.7406,530.4375 1566.1,530.5781 Q1565.4594,530.7344 1564.7563,530.7344 Q1562.2563,530.7344 1560.9281,529.0938 Q1559.6156,527.4375 1559.6156,524.3125 Q1559.6156,521.1875 1560.9281,519.5313 Q1562.2563,517.875 1564.7563,517.875 Q1565.4594,517.875 1566.1,518.0313 Q1566.7563,518.1875 1567.3188,518.4844 L1567.3188,521.2031 Q1566.6938,520.625 1566.1,520.3594 Q1565.5063,520.0781 1564.8813,520.0781 Q1563.5375,520.0781 1562.85,521.1563 Q1562.1625,522.2188 1562.1625,524.3125 Q1562.1625,526.4063 1562.85,527.4844 Q1563.5375,528.5469 1564.8813,528.5469 Q1565.5063,528.5469 1566.1,528.2813 Q1566.6938,528 1567.3188,527.4219 L1567.3188,530.1406 Z " fill="#000000"/><text fill="#000000" font-family="sans-serif" font-size="14" lengthAdjust="spacing" textLength="100" x="1582.65" y="529.3467">DisplaySystem</text><line style="stroke:#181818;stroke-width:0.5;" x1="1531" x2="1704" y1="540.5" y2="540.5"/><line style="stroke:#181818;stroke-width:0.5;" x1="1531" x2="1704" y1="548.5" y2="548.5"/><ellipse cx="1541" cy="562.1484" fill="#84BE84" rx="3" ry="3" style="stroke:#038048;stroke-width:1.0;"/><text fill="#000000" font-family="sans-serif" font-size="14" lengthAdjust="spacing" textLength="149" x="1550" y="565.4951">displayQueues(): void</text></g><!--class WebApp--><g id="elem_WebApp"><rect codeLine="45" fill="#F1F1F1" height="80.5938" id="WebApp" rx="2.5" ry="2.5" style="stroke:#181818;stroke-width:0.5;" width="399" x="1204" y="230"/><ellipse cx="1370.25" cy="246" fill="#ADD1B2" rx="11" ry="11" style="stroke:#181818;stroke-width:1.0;"/><path d="M1373.2188,251.6406 Q1372.6406,251.9375 1372,252.0781 Q1371.3594,252.2344 1370.6563,252.2344 Q1368.1563,252.2344 1366.8281,250.5938 Q1365.5156,248.9375 1365.5156,245.8125 Q1365.5156,242.6875 1366.8281,241.0313 Q1368.1563,239.375 1370.6563,239.375 Q1371.3594,239.375 1372,239.5313 Q1372.6563,239.6875 1373.2188,239.9844 L1373.2188,242.7031 Q1372.5938,242.125 1372,241.8594 Q1371.4063,241.5781 1370.7813,241.5781 Q1369.4375,241.5781 1368.75,242.6563 Q1368.0625,243.7188 1368.0625,245.8125 Q1368.0625,247.9063 1368.75,248.9844 Q1369.4375,250.0469 1370.7813,250.0469 Q1371.4063,250.0469 1372,249.7813 Q1372.5938,249.5 1373.2188,248.9219 L1373.2188,251.6406 Z " fill="#000000"/><text fill="#000000" font-family="sans-serif" font-size="14" lengthAdjust="spacing" textLength="58" x="1390.75" y="250.8467">WebApp</text><line style="stroke:#181818;stroke-width:0.5;" x1="1205" x2="1602" y1="262" y2="262"/><line style="stroke:#181818;stroke-width:0.5;" x1="1205" x2="1602" y1="270" y2="270"/><ellipse cx="1215" cy="283.6484" fill="#84BE84" rx="3" ry="3" style="stroke:#038048;stroke-width:1.0;"/><text fill="#000000" font-family="sans-serif" font-size="14" lengthAdjust="spacing" textLength="373" x="1224" y="286.9951">registerParticipant(email: String, fullName: String): void</text><ellipse cx="1215" cy="299.9453" fill="#84BE84" rx="3" ry="3" style="stroke:#038048;stroke-width:1.0;"/><text fill="#000000" font-family="sans-serif" font-size="14" lengthAdjust="spacing" textLength="279" x="1224" y="303.292">displayQueueNumber(queueId: int): void</text></g><!--class MobileApp--><g id="elem_MobileApp"><rect codeLine="50" fill="#F1F1F1" height="80.5938" id="MobileApp" rx="2.5" ry="2.5" style="stroke:#181818;stroke-width:0.5;" width="399" x="1638" y="230"/><ellipse cx="1797.25" cy="246" fill="#ADD1B2" rx="11" ry="11" style="stroke:#181818;stroke-width:1.0;"/><path d="M1800.2188,251.6406 Q1799.6406,251.9375 1799,252.0781 Q1798.3594,252.2344 1797.6563,252.2344 Q1795.1563,252.2344 1793.8281,250.5938 Q1792.5156,248.9375 1792.5156,245.8125 Q1792.5156,242.6875 1793.8281,241.0313 Q1795.1563,239.375 1797.6563,239.375 Q1798.3594,239.375 1799,239.5313 Q1799.6563,239.6875 1800.2188,239.9844 L1800.2188,242.7031 Q1799.5938,242.125 1799,241.8594 Q1798.4063,241.5781 1797.7813,241.5781 Q1796.4375,241.5781 1795.75,242.6563 Q1795.0625,243.7188 1795.0625,245.8125 Q1795.0625,247.9063 1795.75,248.9844 Q1796.4375,250.0469 1797.7813,250.0469 Q1798.4063,250.0469 1799,249.7813 Q1799.5938,249.5 1800.2188,248.9219 L1800.2188,251.6406 Z " fill="#000000"/><text fill="#000000" font-family="sans-serif" font-size="14" lengthAdjust="spacing" textLength="72" x="1817.75" y="250.8467">MobileApp</text><line style="stroke:#181818;stroke-width:0.5;" x1="1639" x2="2036" y1="262" y2="262"/><line style="stroke:#181818;stroke-width:0.5;" x1="1639" x2="2036" y1="270" y2="270"/><ellipse cx="1649" cy="283.6484" fill="#84BE84" rx="3" ry="3" style="stroke:#038048;stroke-width:1.0;"/><text fill="#000000" font-family="sans-serif" font-size="14" lengthAdjust="spacing" textLength="373" x="1658" y="286.9951">registerParticipant(email: String, fullName: String): void</text><ellipse cx="1649" cy="299.9453" fill="#84BE84" rx="3" ry="3" style="stroke:#038048;stroke-width:1.0;"/><text fill="#000000" font-family="sans-serif" font-size="14" lengthAdjust="spacing" textLength="279" x="1658" y="303.292">displayQueueNumber(queueId: int): void</text></g><!--class EmailSystem--><g id="elem_EmailSystem"><rect codeLine="55" fill="#F1F1F1" height="64.2969" id="EmailSystem" rx="2.5" ry="2.5" style="stroke:#181818;stroke-width:0.5;" width="429" x="669" y="238.5"/><ellipse cx="835.75" cy="254.5" fill="#ADD1B2" rx="11" ry="11" style="stroke:#181818;stroke-width:1.0;"/><path d="M838.7188,260.1406 Q838.1406,260.4375 837.5,260.5781 Q836.8594,260.7344 836.1563,260.7344 Q833.6563,260.7344 832.3281,259.0938 Q831.0156,257.4375 831.0156,254.3125 Q831.0156,251.1875 832.3281,249.5313 Q833.6563,247.875 836.1563,247.875 Q836.8594,247.875 837.5,248.0313 Q838.1563,248.1875 838.7188,248.4844 L838.7188,251.2031 Q838.0938,250.625 837.5,250.3594 Q836.9063,250.0781 836.2813,250.0781 Q834.9375,250.0781 834.25,251.1563 Q833.5625,252.2188 833.5625,254.3125 Q833.5625,256.4063 834.25,257.4844 Q834.9375,258.5469 836.2813,258.5469 Q836.9063,258.5469 837.5,258.2813 Q838.0938,258 838.7188,257.4219 L838.7188,260.1406 Z " fill="#000000"/><text fill="#000000" font-family="sans-serif" font-size="14" lengthAdjust="spacing" textLength="87" x="856.25" y="259.3467">EmailSystem</text><line style="stroke:#181818;stroke-width:0.5;" x1="670" x2="1097" y1="270.5" y2="270.5"/><line style="stroke:#181818;stroke-width:0.5;" x1="670" x2="1097" y1="278.5" y2="278.5"/><ellipse cx="680" cy="292.1484" fill="#84BE84" rx="3" ry="3" style="stroke:#038048;stroke-width:1.0;"/><text fill="#000000" font-family="sans-serif" font-size="14" lengthAdjust="spacing" textLength="403" x="689" y="295.4951">sendQueueNumber(email: String, queueNumber: int): void</text></g><!--link QueueManagementSystem to Customer--><g id="link_QueueManagementSystem_Customer"><path codeLine="59" d="M884.93,121.99 C791.45,140.13 679.37,165.78 581.5,199 C550.81,209.42 544.59,215.72 515.5,230 C442.08,266.03 365.4562,305.2675 302.2162,338.0675 " fill="none" id="QueueManagementSystem-to-Customer" style="stroke:#181818;stroke-width:1.0;"/><polygon fill="#181818" points="296.89,340.83,306.721,340.2371,301.3285,338.5279,303.0377,333.1354,296.89,340.83" style="stroke:#181818;stroke-width:1.0;"/></g><!--link QueueManagementSystem to Participant--><g id="link_QueueManagementSystem_Participant"><path codeLine="60" d="M1110.03,169.08 C1120,211.61 1126.67,264.56 1115.5,311 C1098.82,380.38 1092.42,403.01 1042.5,454 C1031.65,465.09 1024.0296,471.7328 1010.7596,480.6528 " fill="none" id="QueueManagementSystem-to-Participant" style="stroke:#181818;stroke-width:1.0;"/><polygon fill="#181818" points="1005.78,484,1015.4808,482.2989,1009.9296,481.2106,1011.0179,475.6594,1005.78,484" style="stroke:#181818;stroke-width:1.0;"/></g><!--link QueueManagementSystem to Teller--><g id="link_QueueManagementSystem_Teller"><path codeLine="61" d="M884.69,114.61 C767.93,133.12 634.85,161.46 589.5,199 C543.93,236.73 523.4846,297.5891 513.5446,342.9391 " fill="none" id="QueueManagementSystem-to-Teller" style="stroke:#181818;stroke-width:1.0;"/><polygon fill="#181818" points="512.26,348.8,518.0942,340.8651,513.3305,343.9159,510.2797,339.1523,512.26,348.8" style="stroke:#181818;stroke-width:1.0;"/></g><!--link QueueManagementSystem to Queue--><g id="link_QueueManagementSystem_Queue"><path codeLine="62" d="M884.97,130.12 C785.7,155.05 680.7,189.78 651.5,230 C626.1,264.98 639.7614,534.512 648.2014,668.002 " fill="none" id="QueueManagementSystem-to-Queue" style="stroke:#181818;stroke-width:1.0;"/><polygon fill="#181818" points="648.58,673.99,652.0041,664.7555,648.2645,669,644.0201,665.2603,648.58,673.99" style="stroke:#181818;stroke-width:1.0;"/></g><!--link QueueManagementSystem to DisplaySystem--><g id="link_QueueManagementSystem_DisplaySystem"><path codeLine="63" d="M1284.28,104.2 C1553.46,126.74 2004.85,172.61 2054.5,230 C2171.9,365.69 1869.6777,471.0817 1710.9777,515.5317 " fill="none" id="QueueManagementSystem-to-DisplaySystem" style="stroke:#181818;stroke-width:1.0;"/><polygon fill="#181818" points="1705.2,517.15,1714.9453,518.5744,1710.0147,515.8015,1712.7876,510.8709,1705.2,517.15" style="stroke:#181818;stroke-width:1.0;"/></g><!--link QueueManagementSystem to WebApp--><g id="link_QueueManagementSystem_WebApp"><path codeLine="64" d="M1226.28,169.22 C1263.38,190.22 1296.5679,208.9953 1328.0979,226.8353 " fill="none" id="QueueManagementSystem-to-WebApp" style="stroke:#181818;stroke-width:1.0;"/><polygon fill="#181818" points="1333.32,229.79,1327.4567,221.8766,1328.9683,227.3278,1323.5171,228.8393,1333.32,229.79" style="stroke:#181818;stroke-width:1.0;"/></g><!--link QueueManagementSystem to MobileApp--><g id="link_QueueManagementSystem_MobileApp"><path codeLine="65" d="M1284.31,136.9 C1405.55,165.96 1552.5552,201.2017 1666.8452,228.5917 " fill="none" id="QueueManagementSystem-to-MobileApp" style="stroke:#181818;stroke-width:1.0;"/><polygon fill="#181818" points="1672.68,229.99,1664.86,224.0027,1667.8177,228.8247,1662.9956,231.7824,1672.68,229.99" style="stroke:#181818;stroke-width:1.0;"/></g><!--link QueueManagementSystem to EmailSystem--><g id="link_QueueManagementSystem_EmailSystem"><path codeLine="66" d="M995.17,169.22 C967.91,193.7 944.0047,215.1716 922.6747,234.3216 " fill="none" id="QueueManagementSystem-to-EmailSystem" style="stroke:#181818;stroke-width:1.0;"/><polygon fill="#181818" points="918.21,238.33,927.5792,235.2939,921.9305,234.9897,922.2347,229.341,918.21,238.33" style="stroke:#181818;stroke-width:1.0;"/></g><!--link Customer to Queue--><g id="link_Customer_Queue"><path codeLine="68" d="M258.67,454.11 C308.7,494.51 378.6,550.08 441.5,597 C479.27,625.18 516.7076,651.8093 553.5676,677.4993 " fill="none" id="Customer-to-Queue" style="stroke:#181818;stroke-width:1.0;"/><polygon fill="#181818" points="558.49,680.93,553.3935,672.5023,554.388,678.0711,548.8192,679.0655,558.49,680.93" style="stroke:#181818;stroke-width:1.0;"/><polygon fill="#000000" points="450.4856,543.5855,445.0502,535.7812,441.501,540.4665,450.4856,543.5855" style="stroke:#000000;stroke-width:1.0;"/><text fill="#000000" font-family="sans-serif" font-size="13" lengthAdjust="spacing" textLength="60" x="455.5" y="545.0669">manages</text></g><!--link Participant to Queue--><g id="link_Participant_Queue"><path codeLine="69" d="M820.96,597.11 C794.35,620.77 767.4644,644.6737 739.1044,669.8837 " fill="none" id="Participant-to-Queue" style="stroke:#181818;stroke-width:1.0;"/><polygon fill="#181818" points="734.62,673.87,744.0041,670.8802,738.357,670.5481,738.689,664.901,734.62,673.87" style="stroke:#181818;stroke-width:1.0;"/><polygon fill="#000000" points="783.7633,638.8886,792.4758,635.0751,788.5704,630.6823,783.7633,638.8886" style="stroke:#000000;stroke-width:1.0;"/><text fill="#000000" font-family="sans-serif" font-size="13" lengthAdjust="spacing" textLength="56" x="796.5" y="640.0669">registers</text></g><!--link Teller to Queue--><g id="link_Teller_Queue"><path codeLine="70" d="M514.35,446.3 C523.71,487.32 539.6,547.49 561.5,597 C573.06,623.14 585.3312,645.0938 600.2912,668.8338 " fill="none" id="Teller-to-Queue" style="stroke:#181818;stroke-width:1.0;"/><polygon fill="#181818" points="603.49,673.91,602.0759,664.1632,600.8243,669.6798,595.3077,668.4283,603.49,673.91" style="stroke:#181818;stroke-width:1.0;"/><polygon fill="#000000" points="568.3013,545.2307,567.7843,535.7342,562.3011,537.8517,568.3013,545.2307" style="stroke:#000000;stroke-width:1.0;"/><text fill="#000000" font-family="sans-serif" font-size="13" lengthAdjust="spacing" textLength="51" x="575.5" y="545.0669">controls</text></g><!--link DisplaySystem to Queue--><g id="link_DisplaySystem_Queue"><path codeLine="71" d="M1529.82,560.1 C1348.93,598.47 941.4994,684.9049 754.4494,724.5849 " fill="none" id="DisplaySystem-to-Queue" style="stroke:#181818;stroke-width:1.0;"/><polygon fill="#181818" points="748.58,725.83,758.2142,727.8753,753.4712,724.7924,756.554,720.0494,748.58,725.83" style="stroke:#181818;stroke-width:1.0;"/><polygon fill="#000000" points="1193.6088,636.604,1203.0669,637.6019,1201.8471,631.852,1193.6088,636.604" style="stroke:#000000;stroke-width:1.0;"/><text fill="#000000" font-family="sans-serif" font-size="13" lengthAdjust="spacing" textLength="51" x="1207.5" y="640.0669">displays</text></g><!--link EmailSystem to Participant--><g id="link_EmailSystem_Participant"><path codeLine="72" d="M883.5,302.5 C883.5,346.8 883.5,422.91 883.5,477.89 " fill="none" id="EmailSystem-to-Participant" style="stroke:#181818;stroke-width:1.0;"/><polygon fill="#181818" points="883.5,483.89,887.5,474.89,883.5,478.89,879.5,474.89,883.5,483.89" style="stroke:#181818;stroke-width:1.0;"/><polygon fill="#000000" points="888.5,402.5664,891.4389,393.5213,885.5611,393.5213,888.5,402.5664" style="stroke:#000000;stroke-width:1.0;"/><text fill="#000000" font-family="sans-serif" font-size="13" lengthAdjust="spacing" textLength="136" x="897.5" y="402.0669">sends queue number</text></g><!--SRC=[nLJRQiCm37tFL_WnPTiFvA4mTe4zj7Hqi6StKOF1brHsIilOlo-nSx7JrgDbi3u4AXrPqZcISawr9kyrrB2WafOWG9hrKHiGv2iXpUyEeMJDVtogjL42C0L16S_8sY2JvJtPrfmlgO3UCil8Nh4Y35vHD2nd5PNcflWFuFpAr3a2DM1RIok4BJkCWO8UbhNO06Q4IHE42Kk32zkrtxVY59GhQL1nYrgXAX6qlepM80iBTJdJQYHZ0lzEajmgqfFTYn0qxapJvl-gQvsULEEfTtL1lOAl2dyX5I47jWUVgPb5ZOMuCRYU54-ki_c711RIl-yZdILajAVEPxLBM2CsYtHYR-O4Z2iZQ9t9HhTszKBVKDOpqnMdnt0n2sUy9DedR1whQhh5jowYdwmJ9qhaGcqOXtyiuALzEoHikeUJzBlHDNto_85yU9WFYng1U1r7K6wq8m3hYVY36OdWt5n408Dq4Op7Rf8CnseeasJ4NHHDveb_FNn4Fn4jfbjitzqjRUiDnzy7TLFHWdp19xGtm5PxxIGcqchSXFm0]--></g></svg>