<svg xmlns="http://www.w3.org/2000/svg" xmlns:xlink="http://www.w3.org/1999/xlink" contentStyleType="text/css" data-diagram-type="SEQUENCE" height="1281px" preserveAspectRatio="none" style="width:943px;height:1281px;background:#FFFFFF;" version="1.1" viewBox="0 0 943 1281" width="943px" zoomAndPan="magnify"><title>Queue update with 3 LiveView clients</title><defs/><g><text fill="#000000" font-family="sans-serif" font-size="14" font-weight="bold" lengthAdjust="spacing" textLength="297.7598" x="316.5356" y="27.9951">Queue update with 3 LiveView clients</text><g><title>Browser1</title><rect fill="#000000" fill-opacity="0.00000" height="1081.6484" width="8" x="36.9731" y="118.5938"/><line style="stroke:#181818;stroke-width:0.5;stroke-dasharray:5,5;" x1="40" x2="40" y1="118.5938" y2="1200.2422"/></g><g><title>Browser2</title><rect fill="#000000" fill-opacity="0.00000" height="1081.6484" width="8" x="118.9194" y="118.5938"/><line style="stroke:#181818;stroke-width:0.5;stroke-dasharray:5,5;" x1="121.9463" x2="121.9463" y1="118.5938" y2="1200.2422"/></g><g><title>Browser3</title><rect fill="#000000" fill-opacity="0.00000" height="1081.6484" width="8" x="200.8657" y="118.5938"/><line style="stroke:#181818;stroke-width:0.5;stroke-dasharray:5,5;" x1="203.8926" x2="203.8926" y1="118.5938" y2="1200.2422"/></g><g><title>LV1</title><rect fill="#000000" fill-opacity="0.00000" height="1081.6484" width="8" x="266.981" y="118.5938"/><line style="stroke:#181818;stroke-width:0.5;stroke-dasharray:5,5;" x1="270.8389" x2="270.8389" y1="118.5938" y2="1200.2422"/></g><g><title>LV2</title><rect fill="#000000" fill-opacity="0.00000" height="1081.6484" width="8" x="317.2651" y="118.5938"/><line style="stroke:#181818;stroke-width:0.5;stroke-dasharray:5,5;" x1="321.123" x2="321.123" y1="118.5938" y2="1200.2422"/></g><g><title>LV3</title><rect fill="#000000" fill-opacity="0.00000" height="1081.6484" width="8" x="367.5493" y="118.5938"/><line style="stroke:#181818;stroke-width:0.5;stroke-dasharray:5,5;" x1="371.4072" x2="371.4072" y1="118.5938" y2="1200.2422"/></g><g><title>QueueCounter</title><rect fill="#000000" fill-opacity="0.00000" height="1081.6484" width="8" x="534.1875" y="118.5938"/><line style="stroke:#181818;stroke-width:0.5;stroke-dasharray:5,5;" x1="537.2188" x2="537.2188" y1="118.5938" y2="1200.2422"/></g><g><title>PubSub</title><rect fill="#000000" fill-opacity="0.00000" height="1081.6484" width="8" x="843.4067" y="118.5938"/><line style="stroke:#181818;stroke-width:0.5;stroke-dasharray:5,5;" x1="846.9824" x2="846.9824" y1="118.5938" y2="1200.2422"/></g><g><title>DB</title><rect fill="#000000" fill-opacity="0.00000" height="1081.6484" width="8" x="904.8311" y="118.5938"/><line style="stroke:#181818;stroke-width:0.5;stroke-dasharray:5,5;" x1="908.8311" x2="908.8311" y1="118.5938" y2="1200.2422"/></g><g class="participant participant-head" data-participant="B1"><text fill="#000000" font-family="sans-serif" font-size="14" lengthAdjust="spacing" textLength="65.9463" x="5" y="115.292">Browser1</text><ellipse cx="40.9731" cy="50.7969" fill="#E2E2F0" rx="8" ry="8" style="stroke:#181818;stroke-width:0.5;"/><path d="M40.9731,58.7969 L40.9731,85.7969 M27.9731,66.7969 L53.9731,66.7969 M40.9731,85.7969 L27.9731,100.7969 M40.9731,85.7969 L53.9731,100.7969" fill="none" style="stroke:#181818;stroke-width:0.5;"/></g><g class="participant participant-tail" data-participant="B1"><text fill="#000000" font-family="sans-serif" font-size="14" lengthAdjust="spacing" textLength="65.9463" x="5" y="1212.2373">Browser1</text><ellipse cx="40.9731" cy="1224.0391" fill="#E2E2F0" rx="8" ry="8" style="stroke:#181818;stroke-width:0.5;"/><path d="M40.9731,1232.0391 L40.9731,1259.0391 M27.9731,1240.0391 L53.9731,1240.0391 M40.9731,1259.0391 L27.9731,1274.0391 M40.9731,1259.0391 L53.9731,1274.0391" fill="none" style="stroke:#181818;stroke-width:0.5;"/></g><g class="participant participant-head" data-participant="B2"><text fill="#000000" font-family="sans-serif" font-size="14" lengthAdjust="spacing" textLength="65.9463" x="86.9463" y="115.292">Browser2</text><ellipse cx="122.9194" cy="50.7969" fill="#E2E2F0" rx="8" ry="8" style="stroke:#181818;stroke-width:0.5;"/><path d="M122.9194,58.7969 L122.9194,85.7969 M109.9194,66.7969 L135.9194,66.7969 M122.9194,85.7969 L109.9194,100.7969 M122.9194,85.7969 L135.9194,100.7969" fill="none" style="stroke:#181818;stroke-width:0.5;"/></g><g class="participant participant-tail" data-participant="B2"><text fill="#000000" font-family="sans-serif" font-size="14" lengthAdjust="spacing" textLength="65.9463" x="86.9463" y="1212.2373">Browser2</text><ellipse cx="122.9194" cy="1224.0391" fill="#E2E2F0" rx="8" ry="8" style="stroke:#181818;stroke-width:0.5;"/><path d="M122.9194,1232.0391 L122.9194,1259.0391 M109.9194,1240.0391 L135.9194,1240.0391 M122.9194,1259.0391 L109.9194,1274.0391 M122.9194,1259.0391 L135.9194,1274.0391" fill="none" style="stroke:#181818;stroke-width:0.5;"/></g><g class="participant participant-head" data-participant="B3"><text fill="#000000" font-family="sans-serif" font-size="14" lengthAdjust="spacing" textLength="65.9463" x="168.8926" y="115.292">Browser3</text><ellipse cx="204.8657" cy="50.7969" fill="#E2E2F0" rx="8" ry="8" style="stroke:#181818;stroke-width:0.5;"/><path d="M204.8657,58.7969 L204.8657,85.7969 M191.8657,66.7969 L217.8657,66.7969 M204.8657,85.7969 L191.8657,100.7969 M204.8657,85.7969 L217.8657,100.7969" fill="none" style="stroke:#181818;stroke-width:0.5;"/></g><g class="participant participant-tail" data-participant="B3"><text fill="#000000" font-family="sans-serif" font-size="14" lengthAdjust="spacing" textLength="65.9463" x="168.8926" y="1212.2373">Browser3</text><ellipse cx="204.8657" cy="1224.0391" fill="#E2E2F0" rx="8" ry="8" style="stroke:#181818;stroke-width:0.5;"/><path d="M204.8657,1232.0391 L204.8657,1259.0391 M191.8657,1240.0391 L217.8657,1240.0391 M204.8657,1259.0391 L191.8657,1274.0391 M204.8657,1259.0391 L217.8657,1274.0391" fill="none" style="stroke:#181818;stroke-width:0.5;"/></g><g class="participant participant-head" data-participant="LV1"><rect fill="#E2E2F0" height="30.2969" rx="2.5" ry="2.5" style="stroke:#181818;stroke-width:0.5;" width="40.2842" x="250.8389" y="87.2969"/><text fill="#000000" font-family="sans-serif" font-size="14" lengthAdjust="spacing" textLength="26.2842" x="257.8389" y="107.292">LV1</text></g><g class="participant participant-tail" data-participant="LV1"><rect fill="#E2E2F0" height="30.2969" rx="2.5" ry="2.5" style="stroke:#181818;stroke-width:0.5;" width="40.2842" x="250.8389" y="1199.2422"/><text fill="#000000" font-family="sans-serif" font-size="14" lengthAdjust="spacing" textLength="26.2842" x="257.8389" y="1219.2373">LV1</text></g><g class="participant participant-head" data-participant="LV2"><rect fill="#E2E2F0" height="30.2969" rx="2.5" ry="2.5" style="stroke:#181818;stroke-width:0.5;" width="40.2842" x="301.123" y="87.2969"/><text fill="#000000" font-family="sans-serif" font-size="14" lengthAdjust="spacing" textLength="26.2842" x="308.123" y="107.292">LV2</text></g><g class="participant participant-tail" data-participant="LV2"><rect fill="#E2E2F0" height="30.2969" rx="2.5" ry="2.5" style="stroke:#181818;stroke-width:0.5;" width="40.2842" x="301.123" y="1199.2422"/><text fill="#000000" font-family="sans-serif" font-size="14" lengthAdjust="spacing" textLength="26.2842" x="308.123" y="1219.2373">LV2</text></g><g class="participant participant-head" data-participant="LV3"><rect fill="#E2E2F0" height="30.2969" rx="2.5" ry="2.5" style="stroke:#181818;stroke-width:0.5;" width="40.2842" x="351.4072" y="87.2969"/><text fill="#000000" font-family="sans-serif" font-size="14" lengthAdjust="spacing" textLength="26.2842" x="358.4072" y="107.292">LV3</text></g><g class="participant participant-tail" data-participant="LV3"><rect fill="#E2E2F0" height="30.2969" rx="2.5" ry="2.5" style="stroke:#181818;stroke-width:0.5;" width="40.2842" x="351.4072" y="1199.2422"/><text fill="#000000" font-family="sans-serif" font-size="14" lengthAdjust="spacing" textLength="26.2842" x="358.4072" y="1219.2373">LV3</text></g><g class="participant participant-head" data-participant="QC"><rect fill="#E2E2F0" height="30.2969" rx="2.5" ry="2.5" style="stroke:#181818;stroke-width:0.5;" width="115.9375" x="480.2188" y="87.2969"/><text fill="#000000" font-family="sans-serif" font-size="14" lengthAdjust="spacing" textLength="101.9375" x="487.2188" y="107.292">QueueCounter</text></g><g class="participant participant-tail" data-participant="QC"><rect fill="#E2E2F0" height="30.2969" rx="2.5" ry="2.5" style="stroke:#181818;stroke-width:0.5;" width="115.9375" x="480.2188" y="1199.2422"/><text fill="#000000" font-family="sans-serif" font-size="14" lengthAdjust="spacing" textLength="101.9375" x="487.2188" y="1219.2373">QueueCounter</text></g><g class="participant participant-head" data-participant="PS"><rect fill="#E2E2F0" height="30.2969" rx="2.5" ry="2.5" style="stroke:#181818;stroke-width:0.5;" width="66.8486" x="813.9824" y="87.2969"/><text fill="#000000" font-family="sans-serif" font-size="14" lengthAdjust="spacing" textLength="52.8486" x="820.9824" y="107.292">PubSub</text></g><g class="participant participant-tail" data-participant="PS"><rect fill="#E2E2F0" height="30.2969" rx="2.5" ry="2.5" style="stroke:#181818;stroke-width:0.5;" width="66.8486" x="813.9824" y="1199.2422"/><text fill="#000000" font-family="sans-serif" font-size="14" lengthAdjust="spacing" textLength="52.8486" x="820.9824" y="1219.2373">PubSub</text></g><g class="participant participant-head" data-participant="DB"><text fill="#000000" font-family="sans-serif" font-size="14" lengthAdjust="spacing" textLength="20.3848" x="895.6387" y="115.292">DB</text><path d="M890.8311,66.2969 C890.8311,56.2969 908.8311,56.2969 908.8311,56.2969 C908.8311,56.2969 926.8311,56.2969 926.8311,66.2969 L926.8311,92.2969 C926.8311,102.2969 908.8311,102.2969 908.8311,102.2969 C908.8311,102.2969 890.8311,102.2969 890.8311,92.2969 L890.8311,66.2969" fill="#E2E2F0" style="stroke:#181818;stroke-width:0.5;"/><path d="M890.8311,66.2969 C890.8311,76.2969 908.8311,76.2969 908.8311,76.2969 C908.8311,76.2969 926.8311,76.2969 926.8311,66.2969" fill="none" style="stroke:#181818;stroke-width:0.5;"/></g><g class="participant participant-tail" data-participant="DB"><text fill="#000000" font-family="sans-serif" font-size="14" lengthAdjust="spacing" textLength="20.3848" x="895.6387" y="1212.2373">DB</text><path d="M890.8311,1225.5391 C890.8311,1215.5391 908.8311,1215.5391 908.8311,1215.5391 C908.8311,1215.5391 926.8311,1215.5391 926.8311,1225.5391 L926.8311,1251.5391 C926.8311,1261.5391 908.8311,1261.5391 908.8311,1261.5391 C908.8311,1261.5391 890.8311,1261.5391 890.8311,1251.5391 L890.8311,1225.5391" fill="#E2E2F0" style="stroke:#181818;stroke-width:0.5;"/><path d="M890.8311,1225.5391 C890.8311,1235.5391 908.8311,1235.5391 908.8311,1235.5391 C908.8311,1235.5391 926.8311,1235.5391 926.8311,1225.5391" fill="none" style="stroke:#181818;stroke-width:0.5;"/></g><rect fill="#EEEEEE" height="3" style="stroke:#EEEEEE;stroke-width:1;" width="931.8311" x="0" y="149.1602"/><line style="stroke:#000000;stroke-width:1;" x1="0" x2="931.8311" y1="149.1602" y2="149.1602"/><line style="stroke:#000000;stroke-width:1;" x1="0" x2="931.8311" y1="152.1602" y2="152.1602"/><rect fill="#EEEEEE" height="23.1328" style="stroke:#000000;stroke-width:2;" width="131.4126" x="400.2092" y="138.5938"/><text fill="#000000" font-family="sans-serif" font-size="13" font-weight="bold" lengthAdjust="spacing" textLength="112.8867" x="406.2092" y="154.6606">Clients connect</text><g class="message" data-participant-1="B1" data-participant-2="LV1"><polygon fill="#181818" points="258.981,188.8594,268.981,192.8594,258.981,196.8594,262.981,192.8594" style="stroke:#181818;stroke-width:1;"/><line style="stroke:#181818;stroke-width:1;" x1="40.9731" x2="264.981" y1="192.8594" y2="192.8594"/><text fill="#000000" font-family="sans-serif" font-size="13" lengthAdjust="spacing" textLength="108.291" x="47.9731" y="187.7935">connect (mount)</text></g><g class="message" data-participant-1="LV1" data-participant-2="PS"><polygon fill="#181818" points="835.4067,217.9922,845.4067,221.9922,835.4067,225.9922,839.4067,221.9922" style="stroke:#181818;stroke-width:1;"/><line style="stroke:#181818;stroke-width:1;" x1="270.981" x2="841.4067" y1="221.9922" y2="221.9922"/><text fill="#000000" font-family="sans-serif" font-size="13" lengthAdjust="spacing" textLength="238.6973" x="277.981" y="216.9263">subscribe("queue_counter:updates")</text></g><g class="message" data-participant-1="LV1" data-participant-2="DB"><polygon fill="#181818" points="896.8311,247.125,906.8311,251.125,896.8311,255.125,900.8311,251.125" style="stroke:#181818;stroke-width:1;"/><line style="stroke:#181818;stroke-width:1;" x1="270.981" x2="902.8311" y1="251.125" y2="251.125"/><text fill="#000000" font-family="sans-serif" font-size="13" lengthAdjust="spacing" textLength="142.5366" x="277.981" y="246.0591">load queue + number</text></g><g class="message" data-participant-1="LV1" data-participant-2="QC"><polygon fill="#181818" points="526.1875,276.2578,536.1875,280.2578,526.1875,284.2578,530.1875,280.2578" style="stroke:#181818;stroke-width:1;"/><line style="stroke:#181818;stroke-width:1;" x1="270.981" x2="532.1875" y1="280.2578" y2="280.2578"/><text fill="#000000" font-family="sans-serif" font-size="13" lengthAdjust="spacing" textLength="142.6382" x="277.981" y="275.1919">get_current_number()</text></g><g class="message" data-participant-1="QC" data-participant-2="LV1"><polygon fill="#181818" points="281.981,305.3906,271.981,309.3906,281.981,313.3906,277.981,309.3906" style="stroke:#181818;stroke-width:1;"/><line style="stroke:#181818;stroke-width:1;stroke-dasharray:2,2;" x1="275.981" x2="537.1875" y1="309.3906" y2="309.3906"/><text fill="#000000" font-family="sans-serif" font-size="13" lengthAdjust="spacing" textLength="50.7368" x="287.981" y="304.3247">number</text></g><g class="message" data-participant-1="LV1" data-participant-2="B1"><polygon fill="#181818" points="51.9731,334.5234,41.9731,338.5234,51.9731,342.5234,47.9731,338.5234" style="stroke:#181818;stroke-width:1;"/><line style="stroke:#181818;stroke-width:1;" x1="45.9731" x2="269.981" y1="338.5234" y2="338.5234"/><text fill="#000000" font-family="sans-serif" font-size="13" lengthAdjust="spacing" textLength="43.1768" x="57.9731" y="333.4575">render</text></g><g class="message" data-participant-1="B2" data-participant-2="LV2"><polygon fill="#181818" points="309.2651,363.6563,319.2651,367.6563,309.2651,371.6563,313.2651,367.6563" style="stroke:#181818;stroke-width:1;"/><line style="stroke:#181818;stroke-width:1;" x1="122.9194" x2="315.2651" y1="367.6563" y2="367.6563"/><text fill="#000000" font-family="sans-serif" font-size="13" lengthAdjust="spacing" textLength="108.291" x="129.9194" y="362.5903">connect (mount)</text></g><g class="message" data-participant-1="LV2" data-participant-2="PS"><polygon fill="#181818" points="835.4067,392.7891,845.4067,396.7891,835.4067,400.7891,839.4067,396.7891" style="stroke:#181818;stroke-width:1;"/><line style="stroke:#181818;stroke-width:1;" x1="321.2651" x2="841.4067" y1="396.7891" y2="396.7891"/><text fill="#000000" font-family="sans-serif" font-size="13" lengthAdjust="spacing" textLength="84.9316" x="328.2651" y="391.7231">subscribe(...)</text></g><g class="message" data-participant-1="LV2" data-participant-2="DB"><polygon fill="#181818" points="896.8311,421.9219,906.8311,425.9219,896.8311,429.9219,900.8311,425.9219" style="stroke:#181818;stroke-width:1;"/><line style="stroke:#181818;stroke-width:1;" x1="321.2651" x2="902.8311" y1="425.9219" y2="425.9219"/><text fill="#000000" font-family="sans-serif" font-size="13" lengthAdjust="spacing" textLength="142.5366" x="328.2651" y="420.856">load queue + number</text></g><g class="message" data-participant-1="LV2" data-participant-2="QC"><polygon fill="#181818" points="526.1875,451.0547,536.1875,455.0547,526.1875,459.0547,530.1875,455.0547" style="stroke:#181818;stroke-width:1;"/><line style="stroke:#181818;stroke-width:1;" x1="321.2651" x2="532.1875" y1="455.0547" y2="455.0547"/><text fill="#000000" font-family="sans-serif" font-size="13" lengthAdjust="spacing" textLength="142.6382" x="328.2651" y="449.9888">get_current_number()</text></g><g class="message" data-participant-1="QC" data-participant-2="LV2"><polygon fill="#181818" points="332.2651,480.1875,322.2651,484.1875,332.2651,488.1875,328.2651,484.1875" style="stroke:#181818;stroke-width:1;"/><line style="stroke:#181818;stroke-width:1;stroke-dasharray:2,2;" x1="326.2651" x2="537.1875" y1="484.1875" y2="484.1875"/><text fill="#000000" font-family="sans-serif" font-size="13" lengthAdjust="spacing" textLength="50.7368" x="338.2651" y="479.1216">number</text></g><g class="message" data-participant-1="LV2" data-participant-2="B2"><polygon fill="#181818" points="133.9194,509.3203,123.9194,513.3203,133.9194,517.3203,129.9194,513.3203" style="stroke:#181818;stroke-width:1;"/><line style="stroke:#181818;stroke-width:1;" x1="127.9194" x2="320.2651" y1="513.3203" y2="513.3203"/><text fill="#000000" font-family="sans-serif" font-size="13" lengthAdjust="spacing" textLength="43.1768" x="139.9194" y="508.2544">render</text></g><g class="message" data-participant-1="B3" data-participant-2="LV3"><polygon fill="#181818" points="359.5493,538.4531,369.5493,542.4531,359.5493,546.4531,363.5493,542.4531" style="stroke:#181818;stroke-width:1;"/><line style="stroke:#181818;stroke-width:1;" x1="204.8657" x2="365.5493" y1="542.4531" y2="542.4531"/><text fill="#000000" font-family="sans-serif" font-size="13" lengthAdjust="spacing" textLength="108.291" x="211.8657" y="537.3872">connect (mount)</text></g><g class="message" data-participant-1="LV3" data-participant-2="PS"><polygon fill="#181818" points="835.4067,567.5859,845.4067,571.5859,835.4067,575.5859,839.4067,571.5859" style="stroke:#181818;stroke-width:1;"/><line style="stroke:#181818;stroke-width:1;" x1="371.5493" x2="841.4067" y1="571.5859" y2="571.5859"/><text fill="#000000" font-family="sans-serif" font-size="13" lengthAdjust="spacing" textLength="84.9316" x="378.5493" y="566.52">subscribe(...)</text></g><g class="message" data-participant-1="LV3" data-participant-2="DB"><polygon fill="#181818" points="896.8311,596.7188,906.8311,600.7188,896.8311,604.7188,900.8311,600.7188" style="stroke:#181818;stroke-width:1;"/><line style="stroke:#181818;stroke-width:1;" x1="371.5493" x2="902.8311" y1="600.7188" y2="600.7188"/><text fill="#000000" font-family="sans-serif" font-size="13" lengthAdjust="spacing" textLength="142.5366" x="378.5493" y="595.6528">load queue + number</text></g><g class="message" data-participant-1="LV3" data-participant-2="QC"><polygon fill="#181818" points="526.1875,625.8516,536.1875,629.8516,526.1875,633.8516,530.1875,629.8516" style="stroke:#181818;stroke-width:1;"/><line style="stroke:#181818;stroke-width:1;" x1="371.5493" x2="532.1875" y1="629.8516" y2="629.8516"/><text fill="#000000" font-family="sans-serif" font-size="13" lengthAdjust="spacing" textLength="142.6382" x="378.5493" y="624.7856">get_current_number()</text></g><g class="message" data-participant-1="QC" data-participant-2="LV3"><polygon fill="#181818" points="382.5493,654.9844,372.5493,658.9844,382.5493,662.9844,378.5493,658.9844" style="stroke:#181818;stroke-width:1;"/><line style="stroke:#181818;stroke-width:1;stroke-dasharray:2,2;" x1="376.5493" x2="537.1875" y1="658.9844" y2="658.9844"/><text fill="#000000" font-family="sans-serif" font-size="13" lengthAdjust="spacing" textLength="50.7368" x="388.5493" y="653.9185">number</text></g><g class="message" data-participant-1="LV3" data-participant-2="B3"><polygon fill="#181818" points="215.8657,684.1172,205.8657,688.1172,215.8657,692.1172,211.8657,688.1172" style="stroke:#181818;stroke-width:1;"/><line style="stroke:#181818;stroke-width:1;" x1="209.8657" x2="370.5493" y1="688.1172" y2="688.1172"/><text fill="#000000" font-family="sans-serif" font-size="13" lengthAdjust="spacing" textLength="43.1768" x="221.8657" y="683.0513">render</text></g><rect fill="#EEEEEE" height="3" style="stroke:#EEEEEE;stroke-width:1;" width="931.8311" x="0" y="716.6836"/><line style="stroke:#000000;stroke-width:1;" x1="0" x2="931.8311" y1="716.6836" y2="716.6836"/><line style="stroke:#000000;stroke-width:1;" x1="0" x2="931.8311" y1="719.6836" y2="719.6836"/><rect fill="#EEEEEE" height="23.1328" style="stroke:#000000;stroke-width:2;" width="161.9956" x="384.9177" y="706.1172"/><text fill="#000000" font-family="sans-serif" font-size="13" font-weight="bold" lengthAdjust="spacing" textLength="143.4697" x="390.9177" y="722.1841">Browser1 clicks "+"</text><g class="message" data-participant-1="B1" data-participant-2="LV1"><polygon fill="#181818" points="258.981,756.3828,268.981,760.3828,258.981,764.3828,262.981,760.3828" style="stroke:#181818;stroke-width:1;"/><line style="stroke:#181818;stroke-width:1;" x1="40.9731" x2="264.981" y1="760.3828" y2="760.3828"/><text fill="#000000" font-family="sans-serif" font-size="13" lengthAdjust="spacing" textLength="203.6011" x="47.9731" y="755.3169">phx-click("increment_number")</text></g><g class="message" data-participant-1="LV1" data-participant-2="DB"><polygon fill="#181818" points="896.8311,785.5156,906.8311,789.5156,896.8311,793.5156,900.8311,789.5156" style="stroke:#181818;stroke-width:1;"/><line style="stroke:#181818;stroke-width:1;" x1="270.981" x2="902.8311" y1="789.5156" y2="789.5156"/><text fill="#000000" font-family="sans-serif" font-size="13" lengthAdjust="spacing" textLength="66.2061" x="277.981" y="784.4497">get queue</text></g><g class="message" data-participant-1="LV1" data-participant-2="DB"><polygon fill="#181818" points="896.8311,814.6484,906.8311,818.6484,896.8311,822.6484,900.8311,818.6484" style="stroke:#181818;stroke-width:1;"/><line style="stroke:#181818;stroke-width:1;" x1="270.981" x2="902.8311" y1="818.6484" y2="818.6484"/><text fill="#000000" font-family="sans-serif" font-size="13" lengthAdjust="spacing" textLength="182.0127" x="277.981" y="813.5825">update current_number + 1</text></g><g class="message" data-participant-1="LV1" data-participant-2="DB"><polygon fill="#181818" points="896.8311,843.7813,906.8311,847.7813,896.8311,851.7813,900.8311,847.7813" style="stroke:#181818;stroke-width:1;"/><line style="stroke:#181818;stroke-width:1;" x1="270.981" x2="902.8311" y1="847.7813" y2="847.7813"/><text fill="#000000" font-family="sans-serif" font-size="13" lengthAdjust="spacing" textLength="124.395" x="277.981" y="842.7153">get updated queue</text></g><g class="message" data-participant-1="DB" data-participant-2="LV1"><polygon fill="#181818" points="281.981,872.9141,271.981,876.9141,281.981,880.9141,277.981,876.9141" style="stroke:#181818;stroke-width:1;"/><line style="stroke:#181818;stroke-width:1;stroke-dasharray:2,2;" x1="275.981" x2="907.8311" y1="876.9141" y2="876.9141"/><text fill="#000000" font-family="sans-serif" font-size="13" lengthAdjust="spacing" textLength="84.1064" x="287.981" y="871.8481">new_number</text></g><g class="message" data-participant-1="LV1" data-participant-2="QC"><polygon fill="#181818" points="526.1875,902.0469,536.1875,906.0469,526.1875,910.0469,530.1875,906.0469" style="stroke:#181818;stroke-width:1;"/><line style="stroke:#181818;stroke-width:1;" x1="270.981" x2="532.1875" y1="906.0469" y2="906.0469"/><text fill="#000000" font-family="sans-serif" font-size="13" lengthAdjust="spacing" textLength="225.2656" x="277.981" y="900.981">set_current_number(new_number)</text></g><g class="message" data-participant-1="QC" data-participant-2="PS"><polygon fill="#181818" points="835.4067,931.1797,845.4067,935.1797,835.4067,939.1797,839.4067,935.1797" style="stroke:#181818;stroke-width:1;"/><line style="stroke:#181818;stroke-width:1;" x1="538.1875" x2="841.4067" y1="935.1797" y2="935.1797"/><text fill="#000000" font-family="sans-serif" font-size="13" lengthAdjust="spacing" textLength="285.2192" x="545.1875" y="930.1138">broadcast {:number_update, new_number}</text></g><g class="message" data-participant-1="LV1" data-participant-2="B1"><polygon fill="#181818" points="51.9731,960.3125,41.9731,964.3125,51.9731,968.3125,47.9731,964.3125" style="stroke:#181818;stroke-width:1;"/><line style="stroke:#181818;stroke-width:1;" x1="45.9731" x2="269.981" y1="964.3125" y2="964.3125"/><text fill="#000000" font-family="sans-serif" font-size="13" lengthAdjust="spacing" textLength="152.5659" x="57.9731" y="959.2466">patch UI (new_number)</text></g><rect fill="#EEEEEE" height="3" style="stroke:#EEEEEE;stroke-width:1;" width="931.8311" x="0" y="992.8789"/><line style="stroke:#000000;stroke-width:1;" x1="0" x2="931.8311" y1="992.8789" y2="992.8789"/><line style="stroke:#000000;stroke-width:1;" x1="0" x2="931.8311" y1="995.8789" y2="995.8789"/><rect fill="#EEEEEE" height="23.1328" style="stroke:#000000;stroke-width:2;" width="159.6152" x="386.1079" y="982.3125"/><text fill="#000000" font-family="sans-serif" font-size="13" font-weight="bold" lengthAdjust="spacing" textLength="141.0894" x="392.1079" y="998.3794">Broadcast received</text><g class="message" data-participant-1="PS" data-participant-2="LV1"><polygon fill="#181818" points="281.981,1032.5781,271.981,1036.5781,281.981,1040.5781,277.981,1036.5781" style="stroke:#181818;stroke-width:1;"/><line style="stroke:#181818;stroke-width:1;" x1="275.981" x2="846.4067" y1="1036.5781" y2="1036.5781"/><text fill="#000000" font-family="sans-serif" font-size="13" lengthAdjust="spacing" textLength="216.3345" x="287.981" y="1031.5122">{:number_update, new_number}</text></g><g class="message" data-participant-1="LV1" data-participant-2="B1"><polygon fill="#181818" points="51.9731,1061.7109,41.9731,1065.7109,51.9731,1069.7109,47.9731,1065.7109" style="stroke:#181818;stroke-width:1;"/><line style="stroke:#181818;stroke-width:1;" x1="45.9731" x2="269.981" y1="1065.7109" y2="1065.7109"/><text fill="#000000" font-family="sans-serif" font-size="13" lengthAdjust="spacing" textLength="54.1836" x="57.9731" y="1060.645">patch UI</text></g><g class="message" data-participant-1="PS" data-participant-2="LV2"><polygon fill="#181818" points="332.2651,1090.8438,322.2651,1094.8438,332.2651,1098.8438,328.2651,1094.8438" style="stroke:#181818;stroke-width:1;"/><line style="stroke:#181818;stroke-width:1;" x1="326.2651" x2="846.4067" y1="1094.8438" y2="1094.8438"/><text fill="#000000" font-family="sans-serif" font-size="13" lengthAdjust="spacing" textLength="216.3345" x="338.2651" y="1089.7778">{:number_update, new_number}</text></g><g class="message" data-participant-1="LV2" data-participant-2="B2"><polygon fill="#181818" points="133.9194,1119.9766,123.9194,1123.9766,133.9194,1127.9766,129.9194,1123.9766" style="stroke:#181818;stroke-width:1;"/><line style="stroke:#181818;stroke-width:1;" x1="127.9194" x2="320.2651" y1="1123.9766" y2="1123.9766"/><text fill="#000000" font-family="sans-serif" font-size="13" lengthAdjust="spacing" textLength="54.1836" x="139.9194" y="1118.9106">patch UI</text></g><g class="message" data-participant-1="PS" data-participant-2="LV3"><polygon fill="#181818" points="382.5493,1149.1094,372.5493,1153.1094,382.5493,1157.1094,378.5493,1153.1094" style="stroke:#181818;stroke-width:1;"/><line style="stroke:#181818;stroke-width:1;" x1="376.5493" x2="846.4067" y1="1153.1094" y2="1153.1094"/><text fill="#000000" font-family="sans-serif" font-size="13" lengthAdjust="spacing" textLength="216.3345" x="388.5493" y="1148.0435">{:number_update, new_number}</text></g><g class="message" data-participant-1="LV3" data-participant-2="B3"><polygon fill="#181818" points="215.8657,1178.2422,205.8657,1182.2422,215.8657,1186.2422,211.8657,1182.2422" style="stroke:#181818;stroke-width:1;"/><line style="stroke:#181818;stroke-width:1;" x1="209.8657" x2="370.5493" y1="1182.2422" y2="1182.2422"/><text fill="#000000" font-family="sans-serif" font-size="13" lengthAdjust="spacing" textLength="54.1836" x="221.8657" y="1177.1763">patch UI</text></g><!--SRC=[XPJDRkem48NtVefHLbIz8CNUeKiNXasbBa2etIB76LsiGfBwfrIg-kvrR4XmoMsMdZDdvlDu4gli0M7Zq26ufXGMuQJi7XWygNTyKNW2UL1OMKE8aBRMm7LzCgXp40PudWPf2D8qo4AG4T88RPLKZQWiFBtaFyxqnvabvq2uh5rbKRVrDij4NhjYwufMM6-9luKeX45OSK8M2rZ62u2igmgbXSM249x3zA6bW7aNdnpR-dUaZNfnlVMQSOMHMXKuoTvQX9sC3FCuB9DrwIlkqm-rA24amZrKxbYWlkYRfTV_eTr9fxNdsKLv4WlydKvZHchYBP_FBds8S1gPwI0p7M2UpMQTz0iV7UEZ0tp1nEar7ujyR92F_P-FZV2nCJusm1TCd5tn-LNebjSljNmraDrdD-lGx3-cGPvagf8QZtqp_zh9StkSI9j4pzzHokdlazzuOsPvLQEzHv0hF9sT9DaWSpk1FlME-9pBc0ljXoc5iV0vZ_8kzljpLVoB9AlM22ltyFm8IT7pvCxLD4hq_uOo3CvtwWRtQvkXBhsTZjlxVRkrit5xlmuN-pS0]--></g></svg>