<?xml version="1.0" encoding="us-ascii" standalone="no"?><svg xmlns="http://www.w3.org/2000/svg" xmlns:xlink="http://www.w3.org/1999/xlink" contentStyleType="text/css" height="441px" preserveAspectRatio="none" style="width:1349px;height:441px;background:#FFFFFF;" version="1.1" viewBox="0 0 1349 441" width="1349px" zoomAndPan="magnify"><defs/><g><!--class Customer--><g id="elem_Customer"><rect codeLine="1" fill="#F1F1F1" height="96.8906" id="Customer" rx="2.5" ry="2.5" style="stroke:#181818;stroke-width:0.5;" width="130" x="7" y="156"/><ellipse cx="35.5" cy="172" fill="#ADD1B2" rx="11" ry="11" style="stroke:#181818;stroke-width:1.0;"/><path d="M39.6094,178 L31.8906,178 L31.8906,165.6094 L39.6094,165.6094 L39.6094,167.7656 L34.3438,167.7656 L34.3438,170.4375 L39.1094,170.4375 L39.1094,172.5938 L34.3438,172.5938 L34.3438,175.8438 L39.6094,175.8438 L39.6094,178 Z " fill="#000000"/><text fill="#000000" font-family="sans-serif" font-size="14" lengthAdjust="spacing" textLength="68" x="52.5" y="176.8467">Customer</text><line style="stroke:#181818;stroke-width:0.5;" x1="8" x2="136" y1="188" y2="188"/><ellipse cx="18" cy="201.6484" fill="#000000" rx="3" ry="3" style="stroke:#000000;stroke-width:1.0;"/><text fill="#000000" font-family="sans-serif" font-size="14" lengthAdjust="spacing" textLength="104" x="27" y="204.9951">customerId: int</text><line style="stroke:#181818;stroke-width:1.0;" x1="8" x2="136" y1="212.2969" y2="212.2969"/><text fill="#000000" font-family="sans-serif" font-size="14" lengthAdjust="spacing" textLength="85" x="13" y="229.292">email: String</text><text fill="#000000" font-family="sans-serif" font-size="14" lengthAdjust="spacing" textLength="108" x="13" y="245.5889">fullName: String</text></g><!--class Participant--><g id="elem_Participant"><rect codeLine="8" fill="#F1F1F1" height="96.8906" id="Participant" rx="2.5" ry="2.5" style="stroke:#181818;stroke-width:0.5;" width="136" x="168" y="338"/><ellipse cx="197.4" cy="354" fill="#ADD1B2" rx="11" ry="11" style="stroke:#181818;stroke-width:1.0;"/><path d="M201.5094,360 L193.7906,360 L193.7906,347.6094 L201.5094,347.6094 L201.5094,349.7656 L196.2438,349.7656 L196.2438,352.4375 L201.0094,352.4375 L201.0094,354.5938 L196.2438,354.5938 L196.2438,357.8438 L201.5094,357.8438 L201.5094,360 Z " fill="#000000"/><text fill="#000000" font-family="sans-serif" font-size="14" lengthAdjust="spacing" textLength="72" x="214.6" y="358.8467">Participant</text><line style="stroke:#181818;stroke-width:0.5;" x1="169" x2="303" y1="370" y2="370"/><ellipse cx="179" cy="383.6484" fill="#000000" rx="3" ry="3" style="stroke:#000000;stroke-width:1.0;"/><text fill="#000000" font-family="sans-serif" font-size="14" lengthAdjust="spacing" textLength="110" x="188" y="386.9951">participantId: int</text><line style="stroke:#181818;stroke-width:1.0;" x1="169" x2="303" y1="394.2969" y2="394.2969"/><text fill="#000000" font-family="sans-serif" font-size="14" lengthAdjust="spacing" textLength="85" x="174" y="411.292">email: String</text><text fill="#000000" font-family="sans-serif" font-size="14" lengthAdjust="spacing" textLength="108" x="174" y="427.5889">fullName: String</text></g><!--class Teller--><g id="elem_Teller"><rect codeLine="15" fill="#F1F1F1" height="96.8906" id="Teller" rx="2.5" ry="2.5" style="stroke:#181818;stroke-width:0.5;" width="120" x="300" y="156"/><ellipse cx="337.5" cy="172" fill="#ADD1B2" rx="11" ry="11" style="stroke:#181818;stroke-width:1.0;"/><path d="M341.6094,178 L333.8906,178 L333.8906,165.6094 L341.6094,165.6094 L341.6094,167.7656 L336.3438,167.7656 L336.3438,170.4375 L341.1094,170.4375 L341.1094,172.5938 L336.3438,172.5938 L336.3438,175.8438 L341.6094,175.8438 L341.6094,178 Z " fill="#000000"/><text fill="#000000" font-family="sans-serif" font-size="14" lengthAdjust="spacing" textLength="38" x="356.5" y="176.8467">Teller</text><line style="stroke:#181818;stroke-width:0.5;" x1="301" x2="419" y1="188" y2="188"/><ellipse cx="311" cy="201.6484" fill="#000000" rx="3" ry="3" style="stroke:#000000;stroke-width:1.0;"/><text fill="#000000" font-family="sans-serif" font-size="14" lengthAdjust="spacing" textLength="72" x="320" y="204.9951">tellerId: int</text><line style="stroke:#181818;stroke-width:1.0;" x1="301" x2="419" y1="212.2969" y2="212.2969"/><text fill="#000000" font-family="sans-serif" font-size="14" lengthAdjust="spacing" textLength="85" x="306" y="229.292">email: String</text><text fill="#000000" font-family="sans-serif" font-size="14" lengthAdjust="spacing" textLength="108" x="306" y="245.5889">fullName: String</text></g><!--class Queue--><g id="elem_Queue"><rect codeLine="22" fill="#F1F1F1" height="113.1875" id="Queue" rx="2.5" ry="2.5" style="stroke:#181818;stroke-width:0.5;" width="143" x="455.5" y="148"/><ellipse cx="499.3" cy="164" fill="#ADD1B2" rx="11" ry="11" style="stroke:#181818;stroke-width:1.0;"/><path d="M503.4094,170 L495.6906,170 L495.6906,157.6094 L503.4094,157.6094 L503.4094,159.7656 L498.1438,159.7656 L498.1438,162.4375 L502.9094,162.4375 L502.9094,164.5938 L498.1438,164.5938 L498.1438,167.8438 L503.4094,167.8438 L503.4094,170 Z " fill="#000000"/><text fill="#000000" font-family="sans-serif" font-size="14" lengthAdjust="spacing" textLength="47" x="519.7" y="168.8467">Queue</text><line style="stroke:#181818;stroke-width:0.5;" x1="456.5" x2="597.5" y1="180" y2="180"/><ellipse cx="466.5" cy="193.6484" fill="#000000" rx="3" ry="3" style="stroke:#000000;stroke-width:1.0;"/><text fill="#000000" font-family="sans-serif" font-size="14" lengthAdjust="spacing" textLength="83" x="475.5" y="196.9951">queueId: int</text><line style="stroke:#181818;stroke-width:1.0;" x1="456.5" x2="597.5" y1="204.2969" y2="204.2969"/><text fill="#000000" font-family="sans-serif" font-size="14" lengthAdjust="spacing" textLength="86" x="461.5" y="221.292">prefix: String</text><text fill="#000000" font-family="sans-serif" font-size="14" lengthAdjust="spacing" textLength="109" x="461.5" y="237.5889">maxNumber: int</text><text fill="#000000" font-family="sans-serif" font-size="14" lengthAdjust="spacing" textLength="131" x="461.5" y="253.8857">currentNumber: int</text></g><!--class QueueManagementSystem--><g id="elem_QueueManagementSystem"><rect codeLine="30" fill="#F1F1F1" height="64.2969" id="QueueManagementSystem" rx="2.5" ry="2.5" style="stroke:#181818;stroke-width:0.5;" width="221" x="537.5" y="7"/><ellipse cx="552.5" cy="23" fill="#ADD1B2" rx="11" ry="11" style="stroke:#181818;stroke-width:1.0;"/><path d="M556.6094,29 L548.8906,29 L548.8906,16.6094 L556.6094,16.6094 L556.6094,18.7656 L551.3438,18.7656 L551.3438,21.4375 L556.1094,21.4375 L556.1094,23.5938 L551.3438,23.5938 L551.3438,26.8438 L556.6094,26.8438 L556.6094,29 Z " fill="#000000"/><text fill="#000000" font-family="sans-serif" font-size="14" lengthAdjust="spacing" textLength="189" x="566.5" y="27.8467">QueueManagementSystem</text><line style="stroke:#181818;stroke-width:0.5;" x1="538.5" x2="757.5" y1="39" y2="39"/><ellipse cx="548.5" cy="52.6484" fill="#000000" rx="3" ry="3" style="stroke:#000000;stroke-width:1.0;"/><text fill="#000000" font-family="sans-serif" font-size="14" lengthAdjust="spacing" textLength="88" x="557.5" y="55.9951">systemId: int</text><line style="stroke:#181818;stroke-width:0.5;" x1="538.5" x2="757.5" y1="63.2969" y2="63.2969"/></g><!--class DisplaySystem--><g id="elem_DisplaySystem"><rect codeLine="34" fill="#F1F1F1" height="64.2969" id="DisplaySystem" rx="2.5" ry="2.5" style="stroke:#181818;stroke-width:0.5;" width="132" x="634" y="172.5"/><ellipse cx="649" cy="188.5" fill="#ADD1B2" rx="11" ry="11" style="stroke:#181818;stroke-width:1.0;"/><path d="M653.1094,194.5 L645.3906,194.5 L645.3906,182.1094 L653.1094,182.1094 L653.1094,184.2656 L647.8438,184.2656 L647.8438,186.9375 L652.6094,186.9375 L652.6094,189.0938 L647.8438,189.0938 L647.8438,192.3438 L653.1094,192.3438 L653.1094,194.5 Z " fill="#000000"/><text fill="#000000" font-family="sans-serif" font-size="14" lengthAdjust="spacing" textLength="100" x="663" y="193.3467">DisplaySystem</text><line style="stroke:#181818;stroke-width:0.5;" x1="635" x2="765" y1="204.5" y2="204.5"/><ellipse cx="645" cy="218.1484" fill="#000000" rx="3" ry="3" style="stroke:#000000;stroke-width:1.0;"/><text fill="#000000" font-family="sans-serif" font-size="14" lengthAdjust="spacing" textLength="85" x="654" y="221.4951">displayId: int</text><line style="stroke:#181818;stroke-width:0.5;" x1="635" x2="765" y1="228.7969" y2="228.7969"/></g><!--class WebApp--><g id="elem_WebApp"><rect codeLine="38" fill="#F1F1F1" height="64.2969" id="WebApp" rx="2.5" ry="2.5" style="stroke:#181818;stroke-width:0.5;" width="120" x="801" y="172.5"/><ellipse cx="829.5" cy="188.5" fill="#ADD1B2" rx="11" ry="11" style="stroke:#181818;stroke-width:1.0;"/><path d="M833.6094,194.5 L825.8906,194.5 L825.8906,182.1094 L833.6094,182.1094 L833.6094,184.2656 L828.3438,184.2656 L828.3438,186.9375 L833.1094,186.9375 L833.1094,189.0938 L828.3438,189.0938 L828.3438,192.3438 L833.6094,192.3438 L833.6094,194.5 Z " fill="#000000"/><text fill="#000000" font-family="sans-serif" font-size="14" lengthAdjust="spacing" textLength="58" x="846.5" y="193.3467">WebApp</text><line style="stroke:#181818;stroke-width:0.5;" x1="802" x2="920" y1="204.5" y2="204.5"/><ellipse cx="812" cy="218.1484" fill="#000000" rx="3" ry="3" style="stroke:#000000;stroke-width:1.0;"/><text fill="#000000" font-family="sans-serif" font-size="14" lengthAdjust="spacing" textLength="94" x="821" y="221.4951">webAppId: int</text><line style="stroke:#181818;stroke-width:0.5;" x1="802" x2="920" y1="228.7969" y2="228.7969"/></g><!--class MobileApp--><g id="elem_MobileApp"><rect codeLine="42" fill="#F1F1F1" height="64.2969" id="MobileApp" rx="2.5" ry="2.5" style="stroke:#181818;stroke-width:0.5;" width="137" x="956.5" y="172.5"/><ellipse cx="986.35" cy="188.5" fill="#ADD1B2" rx="11" ry="11" style="stroke:#181818;stroke-width:1.0;"/><path d="M990.4594,194.5 L982.7406,194.5 L982.7406,182.1094 L990.4594,182.1094 L990.4594,184.2656 L985.1938,184.2656 L985.1938,186.9375 L989.9594,186.9375 L989.9594,189.0938 L985.1938,189.0938 L985.1938,192.3438 L990.4594,192.3438 L990.4594,194.5 Z " fill="#000000"/><text fill="#000000" font-family="sans-serif" font-size="14" lengthAdjust="spacing" textLength="72" x="1003.65" y="193.3467">MobileApp</text><line style="stroke:#181818;stroke-width:0.5;" x1="957.5" x2="1092.5" y1="204.5" y2="204.5"/><ellipse cx="967.5" cy="218.1484" fill="#000000" rx="3" ry="3" style="stroke:#000000;stroke-width:1.0;"/><text fill="#000000" font-family="sans-serif" font-size="14" lengthAdjust="spacing" textLength="111" x="976.5" y="221.4951">mobileAppId: int</text><line style="stroke:#181818;stroke-width:0.5;" x1="957.5" x2="1092.5" y1="228.7969" y2="228.7969"/></g><!--class EmailSystem--><g id="elem_EmailSystem"><rect codeLine="46" fill="#F1F1F1" height="64.2969" id="EmailSystem" rx="2.5" ry="2.5" style="stroke:#181818;stroke-width:0.5;" width="151" x="1149.5" y="172.5"/><ellipse cx="1178.9" cy="188.5" fill="#ADD1B2" rx="11" ry="11" style="stroke:#181818;stroke-width:1.0;"/><path d="M1183.0094,194.5 L1175.2906,194.5 L1175.2906,182.1094 L1183.0094,182.1094 L1183.0094,184.2656 L1177.7438,184.2656 L1177.7438,186.9375 L1182.5094,186.9375 L1182.5094,189.0938 L1177.7438,189.0938 L1177.7438,192.3438 L1183.0094,192.3438 L1183.0094,194.5 Z " fill="#000000"/><text fill="#000000" font-family="sans-serif" font-size="14" lengthAdjust="spacing" textLength="87" x="1196.1" y="193.3467">EmailSystem</text><line style="stroke:#181818;stroke-width:0.5;" x1="1150.5" x2="1299.5" y1="204.5" y2="204.5"/><ellipse cx="1160.5" cy="218.1484" fill="#000000" rx="3" ry="3" style="stroke:#000000;stroke-width:1.0;"/><text fill="#000000" font-family="sans-serif" font-size="14" lengthAdjust="spacing" textLength="125" x="1169.5" y="221.4951">emailSystemId: int</text><line style="stroke:#181818;stroke-width:0.5;" x1="1150.5" x2="1299.5" y1="228.7969" y2="228.7969"/></g><!--link QueueManagementSystem to Customer--><g id="link_QueueManagementSystem_Customer"><path codeLine="50" d="M529.3513,40.4138 C394.2313,42.8438 183.67,54.06 119,101 C100.94,114.11 95.5347,118.8626 88.5647,138.9726 " fill="none" id="QueueManagementSystem-Customer" style="stroke:#181818;stroke-width:1.0;"/><line style="stroke:#181818;stroke-width:1.0;" x1="533.2787" x2="533.4226" y1="36.3426" y2="44.3413"/><line style="stroke:#181818;stroke-width:1.0;" x1="530.2792" x2="530.4231" y1="36.3965" y2="44.3952"/><line style="stroke:#181818;stroke-width:1.0;" x1="529.3513" x2="537.35" y1="40.4138" y2="40.27"/><line style="stroke:#181818;stroke-width:1.0;" x1="85.2899" x2="88.3391" y1="148.4211" y2="157.9449"/><line style="stroke:#181818;stroke-width:1.0;" x1="85.2899" x2="77.0009" y1="148.4211" y2="154.0151"/><line style="stroke:#181818;stroke-width:1.0;" x1="85.2899" x2="82.67" y1="148.4211" y2="155.98"/><ellipse cx="87.2547" cy="142.752" fill="none" rx="4" ry="4" style="stroke:#181818;stroke-width:1.0;"/><text fill="#000000" font-family="sans-serif" font-size="13" lengthAdjust="spacing" textLength="60" x="120" y="114.0669">manages</text></g><!--link QueueManagementSystem to Participant--><g id="link_QueueManagementSystem_Participant"><path codeLine="51" d="M529.4458,53.9386 C417.0658,69.5186 262.17,98.89 224,148 C182.07,201.95 193.6642,268.3283 211.1342,320.5983 " fill="none" id="QueueManagementSystem-Participant" style="stroke:#181818;stroke-width:1.0;"/><line style="stroke:#181818;stroke-width:1.0;" x1="532.8586" x2="533.9572" y1="49.4272" y2="57.3514"/><line style="stroke:#181818;stroke-width:1.0;" x1="529.887" x2="530.9856" y1="49.8392" y2="57.7634"/><line style="stroke:#181818;stroke-width:1.0;" x1="529.4458" x2="537.37" y1="53.9386" y2="52.84"/><line style="stroke:#181818;stroke-width:1.0;" x1="214.3041" x2="222.5306" y1="330.0826" y2="335.7681"/><line style="stroke:#181818;stroke-width:1.0;" x1="214.3041" x2="211.1494" y1="330.0826" y2="339.5719"/><line style="stroke:#181818;stroke-width:1.0;" x1="214.3041" x2="216.84" y1="330.0826" y2="337.67"/><ellipse cx="212.4021" cy="324.392" fill="none" rx="4" ry="4" style="stroke:#181818;stroke-width:1.0;"/><text fill="#000000" font-family="sans-serif" font-size="13" lengthAdjust="spacing" textLength="56" x="225" y="209.0669">registers</text></g><!--link QueueManagementSystem to Teller--><g id="link_QueueManagementSystem_Teller"><path codeLine="52" d="M573.5252,74.5871 C531.5452,94.8471 484.11,119.29 438,148 C432.22,151.6 441.1981,145.3977 435.3181,149.3677 " fill="none" id="QueueManagementSystem-Teller" style="stroke:#181818;stroke-width:1.0;"/><line style="stroke:#181818;stroke-width:1.0;" x1="575.389" x2="578.8661" y1="69.2461" y2="76.451"/><line style="stroke:#181818;stroke-width:1.0;" x1="572.6872" x2="576.1643" y1="70.5501" y2="77.7549"/><line style="stroke:#181818;stroke-width:1.0;" x1="573.5252" x2="580.73" y1="74.5871" y2="71.11"/><line style="stroke:#181818;stroke-width:1.0;" x1="427.0303" x2="423.7574" y1="154.9634" y2="164.4127"/><line style="stroke:#181818;stroke-width:1.0;" x1="427.0303" x2="417.0426" y1="154.9634" y2="154.4673"/><line style="stroke:#181818;stroke-width:1.0;" x1="427.0303" x2="420.4" y1="154.9634" y2="159.44"/><ellipse cx="432.003" cy="151.606" fill="none" rx="4" ry="4" style="stroke:#181818;stroke-width:1.0;"/><text fill="#000000" font-family="sans-serif" font-size="13" lengthAdjust="spacing" textLength="51" x="518" y="114.0669">controls</text></g><!--link QueueManagementSystem to Queue--><g id="link_QueueManagementSystem_Queue"><path codeLine="53" d="M616.4766,77.4473 C608.7166,86.8773 605.42,91.16 598,101 C586.72,115.95 585.2033,117.6988 574.5733,133.0588 " fill="none" id="QueueManagementSystem-Queue" style="stroke:#181818;stroke-width:1.0;"/><line style="stroke:#181818;stroke-width:1.0;" x1="615.9297" x2="622.107" y1="71.817" y2="76.9003"/><line style="stroke:#181818;stroke-width:1.0;" x1="614.0234" x2="620.2007" y1="74.1335" y2="79.2168"/><line style="stroke:#181818;stroke-width:1.0;" x1="616.4766" x2="621.56" y1="77.4473" y2="71.27"/><line style="stroke:#181818;stroke-width:1.0;" x1="568.8826" x2="569.2637" y1="141.2817" y2="151.2744"/><line style="stroke:#181818;stroke-width:1.0;" x1="568.8826" x2="559.3963" y1="141.2817" y2="144.4456"/><line style="stroke:#181818;stroke-width:1.0;" x1="568.8826" x2="564.33" y1="141.2817" y2="147.86"/><ellipse cx="572.297" cy="136.348" fill="none" rx="4" ry="4" style="stroke:#181818;stroke-width:1.0;"/><text fill="#000000" font-family="sans-serif" font-size="13" lengthAdjust="spacing" textLength="60" x="599" y="114.0669">manages</text></g><!--link Queue to Participant--><g id="link_Queue_Participant"><path codeLine="54" d="M448.6369,253.9693 C402.5269,282.4993 365.0371,305.6794 319.5871,333.7994 " fill="none" id="Queue-Participant" style="stroke:#181818;stroke-width:1.0;"/><line style="stroke:#181818;stroke-width:1.0;" x1="449.9338" x2="454.1431" y1="248.4631" y2="255.2662"/><line style="stroke:#181818;stroke-width:1.0;" x1="447.3827" x2="451.592" y1="250.0416" y2="256.8447"/><line style="stroke:#181818;stroke-width:1.0;" x1="448.6369" x2="455.44" y1="253.9693" y2="249.76"/><line style="stroke:#181818;stroke-width:1.0;" x1="311.0832" x2="307.4369" y1="339.0609" y2="348.3724"/><line style="stroke:#181818;stroke-width:1.0;" x1="311.0832" x2="301.1231" y1="339.0609" y2="338.1676"/><line style="stroke:#181818;stroke-width:1.0;" x1="311.0832" x2="304.28" y1="339.0609" y2="343.27"/><ellipse cx="316.1856" cy="335.904" fill="none" rx="4" ry="4" style="stroke:#181818;stroke-width:1.0;"/><text fill="#000000" font-family="sans-serif" font-size="13" lengthAdjust="spacing" textLength="163" x="383" y="304.0669">assigns queue number to</text></g><!--link QueueManagementSystem to DisplaySystem--><g id="link_QueueManagementSystem_DisplaySystem"><path codeLine="55" d="M660.3266,78.7631 C669.5866,107.8531 675.4357,126.2663 684.6757,155.3263 " fill="none" id="QueueManagementSystem-DisplaySystem" style="stroke:#181818;stroke-width:1.0;"/><line style="stroke:#181818;stroke-width:1.0;" x1="655.3018" x2="662.9248" y1="76.1648" y2="73.7382"/><line style="stroke:#181818;stroke-width:1.0;" x1="656.2117" x2="663.8348" y1="79.0235" y2="76.5969"/><line style="stroke:#181818;stroke-width:1.0;" x1="660.3266" x2="657.9" y1="78.7631" y2="71.14"/><line style="stroke:#181818;stroke-width:1.0;" x1="687.7059" x2="695.8479" y1="164.8561" y2="170.6619"/><line style="stroke:#181818;stroke-width:1.0;" x1="687.7059" x2="684.4121" y1="164.8561" y2="174.2981"/><line style="stroke:#181818;stroke-width:1.0;" x1="687.7059" x2="690.13" y1="164.8561" y2="172.48"/><ellipse cx="685.8878" cy="159.1382" fill="none" rx="4" ry="4" style="stroke:#181818;stroke-width:1.0;"/><text fill="#000000" font-family="sans-serif" font-size="13" lengthAdjust="spacing" textLength="52" x="674" y="114.0669">updates</text></g><!--link QueueManagementSystem to WebApp--><g id="link_QueueManagementSystem_WebApp"><path codeLine="56" d="M700.1475,75.6425 C713.6275,85.0625 721.76,90.99 735,101 C765.6,124.12 785.4088,140.0905 810.2388,160.7705 " fill="none" id="QueueManagementSystem-WebApp" style="stroke:#181818;stroke-width:1.0;"/><line style="stroke:#181818;stroke-width:1.0;" x1="694.5775" x2="699.16" y1="76.63" y2="70.0725"/><line style="stroke:#181818;stroke-width:1.0;" x1="697.0366" x2="701.6191" y1="78.3484" y2="71.7909"/><line style="stroke:#181818;stroke-width:1.0;" x1="700.1475" x2="693.59" y1="75.6425" y2="71.06"/><line style="stroke:#181818;stroke-width:1.0;" x1="817.9228" x2="827.9098" y1="167.1702" y2="167.6796"/><line style="stroke:#181818;stroke-width:1.0;" x1="817.9228" x2="820.2302" y1="167.1702" y2="176.9004"/><line style="stroke:#181818;stroke-width:1.0;" x1="817.9228" x2="824.07" y1="167.1702" y2="172.29"/><ellipse cx="813.3124" cy="163.3304" fill="none" rx="4" ry="4" style="stroke:#181818;stroke-width:1.0;"/><text fill="#000000" font-family="sans-serif" font-size="13" lengthAdjust="spacing" textLength="158" x="758" y="114.0669">sends queue number via</text></g><!--link QueueManagementSystem to MobileApp--><g id="link_QueueManagementSystem_MobileApp"><path codeLine="57" d="M766.6665,50.7296 C819.5665,58.8896 874.32,72.83 925,101 C956.51,118.51 973.2803,134.9233 991.5403,158.1333 " fill="none" id="QueueManagementSystem-MobileApp" style="stroke:#181818;stroke-width:1.0;"/><line style="stroke:#181818;stroke-width:1.0;" x1="762.1034" x2="763.323" y1="54.073" y2="46.1666"/><line style="stroke:#181818;stroke-width:1.0;" x1="765.0684" x2="766.288" y1="54.5304" y2="46.6239"/><line style="stroke:#181818;stroke-width:1.0;" x1="766.6665" x2="758.76" y1="50.7296" y2="49.51"/><line style="stroke:#181818;stroke-width:1.0;" x1="997.7235" x2="1007.3856" y1="165.9926" y2="168.5701"/><line style="stroke:#181818;stroke-width:1.0;" x1="997.7235" x2="997.9544" y1="165.9926" y2="175.9899"/><line style="stroke:#181818;stroke-width:1.0;" x1="997.7235" x2="1002.67" y1="165.9926" y2="172.28"/><ellipse cx="994.0136" cy="161.277" fill="none" rx="4" ry="4" style="stroke:#181818;stroke-width:1.0;"/><text fill="#000000" font-family="sans-serif" font-size="13" lengthAdjust="spacing" textLength="158" x="949" y="114.0669">sends queue number via</text></g><!--link QueueManagementSystem to EmailSystem--><g id="link_QueueManagementSystem_EmailSystem"><path codeLine="58" d="M766.5799,47.1363 C884.5199,55.5063 1054.62,71.94 1116,101 C1150.51,117.34 1169.7389,134.9387 1189.7289,158.6887 " fill="none" id="QueueManagementSystem-EmailSystem" style="stroke:#181818;stroke-width:1.0;"/><line style="stroke:#181818;stroke-width:1.0;" x1="762.3068" x2="762.8731" y1="50.8431" y2="42.8632"/><line style="stroke:#181818;stroke-width:1.0;" x1="765.2993" x2="765.8656" y1="51.0555" y2="43.0756"/><line style="stroke:#181818;stroke-width:1.0;" x1="766.5799" x2="758.6" y1="47.1363" y2="46.57"/><line style="stroke:#181818;stroke-width:1.0;" x1="1196.1684" x2="1205.9104" y1="166.3394" y2="168.5963"/><line style="stroke:#181818;stroke-width:1.0;" x1="1196.1684" x2="1196.7296" y1="166.3394" y2="176.3237"/><line style="stroke:#181818;stroke-width:1.0;" x1="1196.1684" x2="1201.32" y1="166.3394" y2="172.46"/><ellipse cx="1192.3047" cy="161.749" fill="none" rx="4" ry="4" style="stroke:#181818;stroke-width:1.0;"/><text fill="#000000" font-family="sans-serif" font-size="13" lengthAdjust="spacing" textLength="197" x="1144" y="114.0669">sends queue number via email</text></g><!--SRC=[fLBBReCm4Bpp5HR7Ilm0jwhjeOT4hLAfPmCRPCclsEisAEc_rp44Ev0KgV75sc5cTl4EI6JOaITdKGamv90HVnv8FG2lJKcOn80MHRX0KCPBia73P1kGhUDyJGMCu4-MGM_yHWsoccagSVJM4RlN_WCuJwR6KDvh-kx0mUYvErLNBBM1BTjVU0gwNpjHWOdasXdZRLDuqcX59Mr1U6ZJMGGnDhQXF7UEgcTcDQVTXDtqw9p-2TMZrYFlEvHpsafLZ4FA56TaJduvFUTa08XO8hZ-YyTZKQX3J5r9SX4uDlzRaSR9Ymoqp7ysIx8X9bvHAub6yIL17u7PM3V6eDQoLje-AaI6NHDK2pqkz-Xjd6ueBZx1i4_Fjo2RITClHXVaSS__TKYNVzEZZqEU_G80]--></g></svg>