<?xml version="1.0" encoding="us-ascii" standalone="no"?><svg xmlns="http://www.w3.org/2000/svg" xmlns:xlink="http://www.w3.org/1999/xlink" contentStyleType="text/css" height="482px" preserveAspectRatio="none" style="width:434px;height:482px;background:#FFFFFF;" version="1.1" viewBox="0 0 434 482" width="434px" zoomAndPan="magnify"><defs/><g><!--entity C--><g id="elem_C"><ellipse cx="42" cy="126" fill="#F1F1F1" rx="8" ry="8" style="stroke:#181818;stroke-width:0.5;"/><path d="M42,134 L42,161 M29,142 L55,142 M42,161 L29,176 M42,161 L55,176 " fill="none" style="stroke:#181818;stroke-width:0.5;"/><text fill="#000000" font-family="sans-serif" font-size="14" lengthAdjust="spacing" textLength="68" x="8" y="190.4951">Customer</text></g><!--entity P--><g id="elem_P"><ellipse cx="42" cy="365" fill="#F1F1F1" rx="8" ry="8" style="stroke:#181818;stroke-width:0.5;"/><path d="M42,373 L42,400 M29,381 L55,381 M42,400 L29,415 M42,400 L55,415 " fill="none" style="stroke:#181818;stroke-width:0.5;"/><text fill="#000000" font-family="sans-serif" font-size="14" lengthAdjust="spacing" textLength="72" x="6" y="429.4951">Participant</text></g><!--entity T--><g id="elem_T"><ellipse cx="42" cy="14" fill="#F1F1F1" rx="8" ry="8" style="stroke:#181818;stroke-width:0.5;"/><path d="M42,22 L42,49 M29,30 L55,30 M42,49 L29,64 M42,49 L55,64 " fill="none" style="stroke:#181818;stroke-width:0.5;"/><text fill="#000000" font-family="sans-serif" font-size="14" lengthAdjust="spacing" textLength="38" x="23" y="78.4951">Teller</text></g><!--entity D--><g id="elem_D"><ellipse cx="42" cy="244" fill="#F1F1F1" rx="8" ry="8" style="stroke:#181818;stroke-width:0.5;"/><path d="M42,252 L42,279 M29,260 L55,260 M42,279 L29,294 M42,279 L55,294 " fill="none" style="stroke:#181818;stroke-width:0.5;"/><text fill="#000000" font-family="sans-serif" font-size="14" lengthAdjust="spacing" textLength="49" x="17.5" y="308.4951">Display</text></g><g id="elem_Register in System"><ellipse cx="314.9263" cy="115.2853" fill="#F1F1F1" rx="84.4263" ry="19.2853" style="stroke:#181818;stroke-width:0.5;"/><text fill="#000000" font-family="sans-serif" font-size="14" lengthAdjust="spacing" textLength="129" x="250.305" y="118.1739">Register in System</text></g><g id="elem_Create and Manage Queues"><ellipse cx="314.7652" cy="195.653" fill="#F1F1F1" rx="113.7652" ry="25.153" style="stroke:#181818;stroke-width:0.5;"/><text fill="#000000" font-family="sans-serif" font-size="14" lengthAdjust="spacing" textLength="194" x="217.7652" y="198.4997">Create and Manage Queues</text></g><g id="elem_Register for Queue"><ellipse cx="314.7932" cy="360.4586" fill="#F1F1F1" rx="85.2932" ry="19.4586" style="stroke:#181818;stroke-width:0.5;"/><text fill="#000000" font-family="sans-serif" font-size="14" lengthAdjust="spacing" textLength="131" x="249.2932" y="363.3053">Register for Queue</text></g><g id="elem_Receive Queue Number"><ellipse cx="314.9278" cy="454.4856" fill="#F1F1F1" rx="100.4278" ry="22.4856" style="stroke:#181818;stroke-width:0.5;"/><text fill="#000000" font-family="sans-serif" font-size="14" lengthAdjust="spacing" textLength="165" x="232.4278" y="457.3322">Receive Queue Number</text></g><g id="elem_Control Queue Progression"><ellipse cx="314.9811" cy="36.5962" fill="#F1F1F1" rx="110.9811" ry="24.5962" style="stroke:#181818;stroke-width:0.5;"/><text fill="#000000" font-family="sans-serif" font-size="14" lengthAdjust="spacing" textLength="188" x="220.9811" y="39.4429">Control Queue Progression</text></g><g id="elem_Display Queues"><ellipse cx="314.7754" cy="273.5551" fill="#F1F1F1" rx="75.7754" ry="17.5551" style="stroke:#181818;stroke-width:0.5;"/><text fill="#000000" font-family="sans-serif" font-size="14" lengthAdjust="spacing" textLength="108" x="257.7754" y="277.3026">Display Queues</text></g><!--link C to Register in System--><g id="link_C_Register in System"><path d="M76.04,149.73 C86.27,147.99 97.59,146.11 108,144.5 C152.26,137.64 196.0255,131.4342 235.5255,126.0242 " fill="none" id="C-to-Register in System" style="stroke:#181818;stroke-width:1.0;"/><polygon fill="#181818" points="241.47,125.21,232.0105,122.4683,236.5162,125.8885,233.096,130.3943,241.47,125.21" style="stroke:#181818;stroke-width:1.0;"/></g><!--link C to Create and Manage Queues--><g id="link_C_Create and Manage Queues"><path d="M76.15,165.81 C86.29,168.65 97.53,171.51 108,173.5 C139.89,179.58 168.9221,183.4802 200.8921,186.8002 " fill="none" id="C-to-Create and Manage Queues" style="stroke:#181818;stroke-width:1.0;"/><polygon fill="#181818" points="206.86,187.42,198.3213,182.5118,201.8867,186.9035,197.495,190.469,206.86,187.42" style="stroke:#181818;stroke-width:1.0;"/></g><!--link P to Register for Queue--><g id="link_P_Register for Queue"><path d="M78.15,390.09 C118.9,384.98 181.2266,377.1564 233.8666,370.5564 " fill="none" id="P-to-Register for Queue" style="stroke:#181818;stroke-width:1.0;"/><polygon fill="#181818" points="239.82,369.81,230.3923,366.9607,234.8588,370.432,231.3875,374.8986,239.82,369.81" style="stroke:#181818;stroke-width:1.0;"/></g><!--link P to Receive Queue Number--><g id="link_P_Receive Queue Number"><path d="M78.15,402.28 C119.68,411.48 183.9719,425.7129 236.9919,437.4529 " fill="none" id="P-to-Receive Queue Number" style="stroke:#181818;stroke-width:1.0;"/><polygon fill="#181818" points="242.85,438.75,234.9276,432.8989,237.9682,437.6691,233.1981,440.7097,242.85,438.75" style="stroke:#181818;stroke-width:1.0;"/></g><!--link T to Register in System--><g id="link_T_Register in System"><path d="M61.2,48.34 C101.02,58.91 191.4012,82.9294 252.9812,99.2894 " fill="none" id="T-to-Register in System" style="stroke:#181818;stroke-width:1.0;"/><polygon fill="#181818" points="258.78,100.83,251.1088,94.6532,253.9476,99.5462,249.0547,102.385,258.78,100.83" style="stroke:#181818;stroke-width:1.0;"/></g><!--link T to Control Queue Progression--><g id="link_T_Control Queue Progression"><path d="M61.2,43.03 C90.51,42.27 144.382,40.8852 198.502,39.4852 " fill="none" id="T-to-Control Queue Progression" style="stroke:#181818;stroke-width:1.0;"/><polygon fill="#181818" points="204.5,39.33,195.3996,35.5641,199.5017,39.4593,195.6064,43.5614,204.5,39.33" style="stroke:#181818;stroke-width:1.0;"/></g><!--link D to Display Queues--><g id="link_D_Display Queues"><path d="M66.58,273.5 C104.56,273.5 174.92,273.5 232.81,273.5 " fill="none" id="D-to-Display Queues" style="stroke:#181818;stroke-width:1.0;"/><polygon fill="#181818" points="238.81,273.5,229.81,269.5,233.81,273.5,229.81,277.5,238.81,273.5" style="stroke:#181818;stroke-width:1.0;"/></g><!--link Register for Queue to Receive Queue Number--><g id="link_Register for Queue_Receive Queue Number"><path d="M315,380.18 C315,395.22 315,409.99 315,425.75 " fill="none" id="Register for Queue-to-Receive Queue Number" style="stroke:#181818;stroke-width:1.0;stroke-dasharray:7.0,7.0;"/><polygon fill="#181818" points="315,431.75,319,422.75,315,426.75,311,422.75,315,431.75" style="stroke:#181818;stroke-width:1.0;"/><text fill="#000000" font-family="sans-serif" font-size="13" lengthAdjust="spacing" textLength="61" x="273" y="410.5669">&#171;include&#187;</text></g><!--link Control Queue Progression to Display Queues--><g id="link_Control Queue Progression_Display Queues"><path d="M243.59,55.32 C185.34,74.98 115.89,110.76 137,166 C152.23,205.84 165.17,214.37 201,237.5 C218.09,248.53 233.036,254.7237 252.096,260.2337 " fill="none" id="Control Queue Progression-to-Display Queues" style="stroke:#181818;stroke-width:1.0;stroke-dasharray:7.0,7.0;"/><polygon fill="#181818" points="257.86,261.9,250.3249,255.5579,253.0567,260.5114,248.1032,263.2432,257.86,261.9" style="stroke:#181818;stroke-width:1.0;"/><text fill="#000000" font-family="sans-serif" font-size="13" lengthAdjust="spacing" textLength="61" x="109" y="162.0669">&#171;include&#187;</text></g><!--SRC=[VP31JiCm44Jl_eevaaFv05Jbubn10V83njc6bHoxMg-H-lUuhGjIHBbPC_DsPnteeD04uULJCREGLqxH6ESr2Mp9cbOIk0pRjD69ikUZYtgMnoPF5C8rEA590-TZSAUpDXXZiTlrU7YZXRFM94Uyd-fhxMwM5N9AS776iujk8RmMAfGxOyODVAZZBsRtQtdYhuRWfQmV91MSxczjbarH9OK6Zf8MePph9rHwk4PkX_pK-Qi87k-rm1FsUuu-b9dwtlopyJ9ZimqR_1i0]--></g></svg>